<svg width="163" height="53" viewBox="0 0 163 53" fill="none" xmlns="http://www.w3.org/2000/svg">
<path d="M27.7842 30.3818C27.762 30.3818 27.762 30.3818 27.7842 30.3818H27.8008C27.8229 30.3818 27.8229 30.3818 27.8008 30.3818C27.8229 30.3818 27.8229 30.3818 27.8008 30.3818H27.8174C27.8395 30.3818 27.8395 30.3818 27.8174 30.3818H27.834C27.8118 30.3818 27.8118 30.3818 27.834 30.3818H27.8506C27.8285 30.3818 27.8285 30.3818 27.8506 30.3818H27.8672C27.834 30.3818 27.834 30.3818 27.8672 30.3818C27.8451 30.3818 27.8451 30.3818 27.8672 30.3818C27.8451 30.3818 27.8451 30.3818 27.8672 30.3818C27.8451 30.3818 27.8451 30.3818 27.8672 30.3818C27.8561 30.3818 27.8561 30.3818 27.8672 30.3818H27.8838C27.917 30.3929 27.917 30.3929 27.8838 30.3818C27.917 30.3929 27.917 30.3929 27.8838 30.3818C27.917 30.3929 27.917 30.3929 27.8838 30.3818H27.9004C27.9225 30.3929 27.9225 30.3929 27.9004 30.3818C27.9336 30.3929 27.9336 30.3929 27.9004 30.3818C27.9225 30.3929 27.9225 30.3929 27.9004 30.3818C27.9336 30.3929 27.9336 30.3929 27.9004 30.3818C27.9225 30.3929 27.9281 30.3929 27.917 30.3818C27.9391 30.3929 27.9391 30.3984 27.917 30.3984C27.9281 30.3984 27.9281 30.3984 27.917 30.3984C27.9391 30.3984 27.9391 30.3984 27.917 30.3984C27.9281 30.3984 27.9281 30.3984 27.917 30.3984H27.9336C27.9779 29.8893 28.0387 29.1312 28.1162 28.124C28.083 28.124 28.0277 28.1185 27.9502 28.1074C27.8838 28.1074 27.8285 28.1074 27.7842 28.1074V30.3818ZM28.9131 22.5957C28.9906 21.821 29.0514 21.2178 29.0957 20.7861C29.1289 20.7861 29.1842 20.7917 29.2617 20.8027C29.3392 20.8027 29.3945 20.8083 29.4277 20.8193C28.9629 26.7627 28.7083 30.0332 28.6641 30.6309C28.4095 34.0508 28.2822 35.7552 28.2822 35.7441C28.2601 35.8438 27.7897 36.5964 26.8711 38.002C26.9264 38.0352 26.7106 37.9189 26.2236 37.6533C25.9801 37.5205 25.8529 37.3932 25.8418 37.2715C25.709 36.4303 25.6924 35.4896 25.792 34.4492C25.8141 34.1725 26.3066 28.8379 27.2695 18.4453C27.2695 18.4342 27.2363 18.2074 27.1699 17.7646C25.9082 18.8493 25.2441 19.4193 25.1777 19.4746C22.4219 21.6217 19.832 23.625 17.4082 25.4844C17.3861 25.4954 17.0485 25.6338 16.3955 25.8994C16.4508 24.9808 16.4896 24.5104 16.5117 24.4883C18.8359 21.7988 20.4408 20.0833 21.3262 19.3418C22.6211 18.235 24.8236 16.6689 27.9336 14.6436C28.5645 14.2451 29.0182 14.1344 29.2949 14.3115C29.5716 14.4775 29.7266 14.9479 29.7598 15.7227C29.8151 17.1393 29.8428 17.8421 29.8428 17.8311C29.7985 18.0745 29.6546 18.4121 29.4111 18.8438C29.1566 19.2975 29.0016 19.6296 28.9463 19.8398C28.902 19.9837 28.7305 20.8802 28.4316 22.5293C28.5534 22.5404 28.7139 22.5625 28.9131 22.5957ZM33.3457 15.9053C33.3125 15.861 33.2904 15.8278 33.2793 15.8057C33.2572 15.8278 33.2295 15.8555 33.1963 15.8887L33.3125 16.0049L33.3457 15.9053ZM40.4844 33.1211C40.429 33.11 40.3903 33.099 40.3682 33.0879V33.8018C40.3903 33.8018 40.418 33.8073 40.4512 33.8184C40.4622 33.5085 40.4733 33.276 40.4844 33.1211ZM41.7129 17.3994C41.6908 17.4769 41.652 17.5986 41.5967 17.7646C41.5524 17.9196 41.5137 18.0413 41.4805 18.1299C41.5026 18.1299 41.5303 18.1354 41.5635 18.1465C41.5967 18.1465 41.6188 18.152 41.6299 18.1631C41.6631 17.82 41.6852 17.5599 41.6963 17.3828C41.7406 17.3385 41.7627 17.3109 41.7627 17.2998C41.7627 17.2998 41.7627 17.2721 41.7627 17.2168C41.7516 17.2389 41.735 17.2998 41.7129 17.3994ZM30.7559 23.3926C31.2207 20.0944 31.4753 18.2682 31.5195 17.9141C31.7188 16.5527 31.8848 15.5788 32.0176 14.9922C32.0508 14.8704 32.167 14.7155 32.3662 14.5273C32.5433 14.3613 32.6429 14.2839 32.665 14.2949C32.9085 14.5163 33.2627 14.9092 33.7275 15.4736C33.7386 15.4736 33.722 15.5566 33.6777 15.7227C33.4896 16.5859 33.3512 17.7757 33.2627 19.292C33.1631 21.0186 33.0635 22.2139 32.9639 22.8779C32.7979 23.8962 33.2074 24.3997 34.1924 24.3887C37.2692 24.3444 38.8353 24.3278 38.8906 24.3389C39.6764 24.4827 40.1911 24.3278 40.4346 23.874C40.5231 23.708 40.6227 23.1878 40.7334 22.3135C40.8109 21.7933 40.8994 21.0296 40.999 20.0225C41.1097 18.9932 41.1982 18.2295 41.2646 17.7314C41.3421 17.0674 41.4805 16.5749 41.6797 16.2539C41.7018 16.2096 42.0228 15.9993 42.6426 15.623C42.7754 16.1875 42.8473 16.4974 42.8584 16.5527C42.9137 16.9069 42.9193 17.0729 42.875 17.0508C43.4284 17.3053 43.6774 17.6982 43.6221 18.2295C43.5999 18.3955 43.5446 18.6279 43.4561 18.9268C43.3564 19.2367 43.3011 19.4525 43.29 19.5742C43.0465 21.4447 42.2829 27.0615 40.999 36.4248C40.9105 37.0446 40.7887 37.4928 40.6338 37.7695C40.6006 37.6257 40.5452 37.4098 40.4678 37.1221C40.3903 36.8343 40.335 36.6185 40.3018 36.4746C40.1911 36.4635 40.1081 36.4525 40.0527 36.4414C39.8757 37.2383 39.7594 37.7585 39.7041 38.002C39.1396 37.0612 38.8298 36.5299 38.7744 36.4082C38.6859 36.2311 38.6693 35.9489 38.7246 35.5615C39.2669 32.0531 39.5326 30.3542 39.5215 30.4648C39.5879 29.8672 39.5049 29.0482 39.2725 28.0078C39.2393 27.8639 39.1341 27.709 38.957 27.543C38.791 27.388 38.6361 27.305 38.4922 27.2939C38.1048 27.2607 37.4961 27.2497 36.666 27.2607C35.8691 27.2718 35.2604 27.2607 34.8398 27.2275C34.8398 27.2275 34.2754 27.0394 33.1465 26.6631C32.8809 26.5745 32.6982 26.5358 32.5986 26.5469C31.7243 26.7129 31.3037 26.818 31.3369 26.8623C30.9495 26.2425 30.6784 25.5452 30.5234 24.7705C30.5234 24.7152 30.6064 24.2503 30.7725 23.376L30.7559 23.3926ZM48.3037 35.7109C48.6468 35.2461 48.8239 34.9915 48.835 34.9473C48.846 34.903 48.8018 34.8311 48.7021 34.7314C48.5804 34.6318 48.4974 34.5876 48.4531 34.5986C48.2318 34.6429 48.0934 34.7757 48.0381 34.9971C48.027 35.0192 48.1156 35.2572 48.3037 35.7109ZM45 35.96C44.7344 35.152 44.596 34.7038 44.585 34.6152C44.5518 34.2832 44.7012 33.929 45.0332 33.5527C45.0664 33.5638 45.1328 33.4697 45.2324 33.2705C45.332 33.0381 45.4206 32.8997 45.498 32.8555C45.6087 32.8112 45.8799 32.7835 46.3115 32.7725C46.5771 32.7614 46.7044 32.6452 46.6934 32.4238C46.638 31.8815 46.7598 31.5439 47.0586 31.4111C47.1914 31.3558 47.5013 31.3392 47.9883 31.3613C49.2721 31.4167 50.1742 31.8483 50.6943 32.6562C51.2035 33.4753 51.1924 34.4603 50.6611 35.6113C50.6169 35.722 50.5228 35.9766 50.3789 36.375C50.2572 36.707 50.141 36.9616 50.0303 37.1387C49.7093 37.681 49.2002 37.9688 48.5029 38.002C47.3851 38.0462 46.4665 37.7197 45.7471 37.0225C45.3929 36.6683 45.1439 36.3141 45 35.96ZM62.6641 20.5537C62.3099 19.5023 62.1107 18.9434 62.0664 18.877C61.4466 17.7812 60.9928 17.1947 60.7051 17.1172C59.2552 16.7077 58.1318 16.9678 57.335 17.8975C54.5127 21.1514 53.2122 24.8867 53.4336 29.1035C53.4336 29.3027 53.9704 31.068 55.0439 34.3994L54.9111 34.3496L54.8447 34.3164C54.8226 34.3053 54.8226 34.3053 54.8447 34.3164L54.8281 34.2998C54.8392 34.3109 54.8392 34.3109 54.8281 34.2998C54.8171 34.2998 54.8171 34.2998 54.8281 34.2998C54.8392 34.3109 54.8337 34.3109 54.8115 34.2998L54.7783 34.2832L54.7285 34.25L54.6953 34.2334H54.6787C54.7008 34.2445 54.7008 34.2445 54.6787 34.2334C54.7119 34.2445 54.7119 34.2445 54.6787 34.2334C54.7008 34.2445 54.7008 34.2445 54.6787 34.2334C54.6676 34.2223 54.6676 34.2223 54.6787 34.2334L54.6621 34.2168C54.6732 34.2279 54.6732 34.2279 54.6621 34.2168L54.5957 34.1836C54.5846 34.1836 54.5846 34.1836 54.5957 34.1836H54.5791C54.6012 34.1947 54.6012 34.1947 54.5791 34.1836C54.568 34.1836 54.5625 34.1836 54.5625 34.1836C54.5846 34.1947 54.5846 34.1947 54.5625 34.1836V34.167H54.5293C54.5182 34.1781 54.5127 34.2057 54.5127 34.25C54.5016 34.2943 54.4961 34.3275 54.4961 34.3496C54.7285 34.3607 54.9111 34.3717 55.0439 34.3828C55.8851 35.2572 56.4938 35.7109 56.8701 35.7441C57.2464 35.7884 57.9658 35.4785 59.0283 34.8145C59.0283 34.8145 59.1335 34.748 59.3438 34.6152L59.3271 34.5986C59.7699 34.7868 60.1406 34.7591 60.4395 34.5156C60.6608 34.3385 60.8213 34.0674 60.9209 33.7021C61.0648 33.193 61.3304 32.5566 61.7178 31.793C62.249 30.7415 62.5534 30.1162 62.6309 29.917C63.2949 28.4007 63.3835 26.9951 62.8965 25.7002C62.6641 25.0693 62.5589 24.2337 62.5811 23.1934C62.5811 23.0384 62.5977 22.5902 62.6309 21.8486C62.653 21.3063 62.6585 20.8691 62.6475 20.5371C62.7803 20.6367 62.985 20.7861 63.2617 20.9854C63.2285 20.6644 63.1898 20.1553 63.1455 19.458C63.0902 19.458 63.0072 19.458 62.8965 19.458C62.7969 19.4691 62.7194 19.4746 62.6641 19.4746V20.5537ZM53.4834 36.541C53.8265 36.6296 54.3522 36.7679 55.0605 36.9561C55.7578 37.1331 56.2835 37.2715 56.6377 37.3711C56.7594 37.0723 56.8092 36.945 56.7871 36.9893C56.2005 36.5244 55.8906 36.2865 55.8574 36.2754C54.5625 35.888 53.6605 34.9196 53.1514 33.3701C53.1735 33.4365 52.93 33.2594 52.4209 32.8389C52.1774 32.6286 52.0501 32.4681 52.0391 32.3574C51.4303 28.7383 51.624 25.252 52.6201 21.8984C52.5758 22.0534 53.2731 20.9355 54.7119 18.5449C55.2764 17.6042 56.61 16.3148 58.7129 14.6768C59.2773 14.2451 59.8418 14.1068 60.4062 14.2617C60.9707 14.4277 61.4632 14.8649 61.8838 15.5732L61.9004 15.5566C61.502 15.3796 60.8988 15.1029 60.0908 14.7266C60.0687 14.7708 60.0355 14.8372 59.9912 14.9258C59.9359 15.0254 59.8971 15.0973 59.875 15.1416C61.2917 15.8057 62.0443 16.1709 62.1328 16.2373C62.9961 16.9014 63.6712 17.6208 64.1582 18.3955C64.5566 19.0153 64.7835 19.7734 64.8389 20.6699C65.182 25.9824 63.8815 30.891 60.9375 35.3955C59.5762 37.4762 57.999 38.3063 56.2061 37.8857C56.0954 37.8636 55.1934 37.4098 53.5 36.5244L53.4834 36.541ZM71.0645 37.2383C70.9427 37.194 70.8763 37.1719 70.8652 37.1719C70.8542 37.1719 70.7878 37.194 70.666 37.2383C70.7878 37.2826 70.8542 37.3047 70.8652 37.3047C70.8763 37.3047 70.9427 37.2826 71.0645 37.2383ZM77.041 19.5742C77.1406 19.5742 77.2181 19.5742 77.2734 19.5742C77.2402 19.054 77.2181 18.722 77.207 18.5781C77.207 18.5781 77.1019 18.5615 76.8916 18.5283C76.8916 18.6501 76.8805 18.8271 76.8584 19.0596C76.8363 19.292 76.8197 19.4635 76.8086 19.5742H77.041ZM65.6025 35.6445C66.2887 30.6198 67.141 27.1999 68.1592 25.3848C68.3031 25.1302 68.375 24.9974 68.375 24.9863C67.888 24.4551 67.8271 24.112 68.1924 23.957C68.292 23.9128 68.4635 23.874 68.707 23.8408C68.9505 23.8076 69.0999 23.7799 69.1553 23.7578C69.2549 23.7135 69.9355 23.6029 71.1973 23.4258C73.0788 23.1491 74.4678 22.07 75.3643 20.1885C75.7184 19.4359 75.7682 18.7773 75.5137 18.2129C75.2591 17.6484 74.7279 17.2721 73.9199 17.084C72.5918 16.7741 71.2194 16.6136 69.8027 16.6025C69.36 16.6025 69.0723 16.4476 68.9395 16.1377C68.9062 16.0381 68.873 15.8997 68.8398 15.7227C68.8177 15.4902 68.7956 15.3464 68.7734 15.291C68.7624 15.2025 68.8509 15.0752 69.0391 14.9092C69.2161 14.7432 69.3877 14.6325 69.5537 14.5771C71.1253 14.057 72.7799 14.1787 74.5176 14.9424C76.2552 15.695 77.4837 16.8239 78.2031 18.3291C78.8118 19.613 78.6956 20.7197 77.8545 21.6494C77.0023 22.5791 76.1058 23.3372 75.165 23.9238C74.8109 24.1341 74.1523 24.4495 73.1895 24.8701C72.3372 25.2464 71.7008 25.5895 71.2803 25.8994C69.8304 26.973 68.8675 28.0299 68.3916 29.0703C68.2145 29.4798 67.8548 31.1455 67.3125 34.0674C67.1908 34.6982 67.484 35.0856 68.1924 35.2295C68.4912 35.2848 69.0169 35.4066 69.7695 35.5947C70.4447 35.7497 70.9759 35.8604 71.3633 35.9268C72.5807 36.137 73.6598 36.1481 74.6006 35.96C74.6117 35.96 74.8662 36.043 75.3643 36.209C75.0654 36.6074 74.9049 36.8122 74.8828 36.8232C74.0195 37.7529 72.6748 38.1237 70.8486 37.9355C69.8304 37.8359 68.6849 37.8027 67.4121 37.8359C66.5488 37.8691 66.0452 37.8193 65.9014 37.6865C65.7575 37.5648 65.6689 37.0889 65.6357 36.2588C65.6247 36.1813 65.6136 35.9766 65.6025 35.6445ZM82.9678 35.7109C83.3109 35.2461 83.488 34.9915 83.499 34.9473C83.5101 34.903 83.4658 34.8311 83.3662 34.7314C83.2445 34.6318 83.1615 34.5876 83.1172 34.5986C82.8958 34.6429 82.7575 34.7757 82.7021 34.9971C82.6911 35.0192 82.7796 35.2572 82.9678 35.7109ZM79.6641 35.96C79.3984 35.152 79.2601 34.7038 79.249 34.6152C79.2158 34.2832 79.3652 33.929 79.6973 33.5527C79.7305 33.5638 79.7969 33.4697 79.8965 33.2705C79.9961 33.0381 80.0846 32.8997 80.1621 32.8555C80.2728 32.8112 80.5439 32.7835 80.9756 32.7725C81.2412 32.7614 81.3685 32.6452 81.3574 32.4238C81.3021 31.8815 81.4238 31.5439 81.7227 31.4111C81.8555 31.3558 82.1654 31.3392 82.6523 31.3613C83.9362 31.4167 84.8382 31.8483 85.3584 32.6562C85.8675 33.4753 85.8564 34.4603 85.3252 35.6113C85.2809 35.722 85.1868 35.9766 85.043 36.375C84.9212 36.707 84.805 36.9616 84.6943 37.1387C84.3734 37.681 83.8643 37.9688 83.167 38.002C82.0492 38.0462 81.1305 37.7197 80.4111 37.0225C80.057 36.6683 79.8079 36.3141 79.6641 35.96ZM91.8164 37.2383C91.6947 37.194 91.6283 37.1719 91.6172 37.1719C91.6061 37.1719 91.5397 37.194 91.418 37.2383C91.5397 37.2826 91.6061 37.3047 91.6172 37.3047C91.6283 37.3047 91.6947 37.2826 91.8164 37.2383ZM97.793 19.5742C97.8926 19.5742 97.9701 19.5742 98.0254 19.5742C97.9922 19.054 97.9701 18.722 97.959 18.5781C97.959 18.5781 97.8538 18.5615 97.6436 18.5283C97.6436 18.6501 97.6325 18.8271 97.6104 19.0596C97.5882 19.292 97.5716 19.4635 97.5605 19.5742H97.793ZM86.3545 35.6445C87.0407 30.6198 87.8929 27.1999 88.9111 25.3848C89.055 25.1302 89.127 24.9974 89.127 24.9863C88.64 24.4551 88.5791 24.112 88.9443 23.957C89.0439 23.9128 89.2155 23.874 89.459 23.8408C89.7025 23.8076 89.8519 23.7799 89.9072 23.7578C90.0068 23.7135 90.6875 23.6029 91.9492 23.4258C93.8307 23.1491 95.2197 22.07 96.1162 20.1885C96.4704 19.4359 96.5202 18.7773 96.2656 18.2129C96.0111 17.6484 95.4798 17.2721 94.6719 17.084C93.3438 16.7741 91.9714 16.6136 90.5547 16.6025C90.112 16.6025 89.8242 16.4476 89.6914 16.1377C89.6582 16.0381 89.625 15.8997 89.5918 15.7227C89.5697 15.4902 89.5475 15.3464 89.5254 15.291C89.5143 15.2025 89.6029 15.0752 89.791 14.9092C89.9681 14.7432 90.1396 14.6325 90.3057 14.5771C91.8773 14.057 93.5319 14.1787 95.2695 14.9424C97.0072 15.695 98.2357 16.8239 98.9551 18.3291C99.5638 19.613 99.4476 20.7197 98.6064 21.6494C97.7542 22.5791 96.8577 23.3372 95.917 23.9238C95.5628 24.1341 94.9043 24.4495 93.9414 24.8701C93.0892 25.2464 92.4528 25.5895 92.0322 25.8994C90.5824 26.973 89.6195 28.0299 89.1436 29.0703C88.9665 29.4798 88.6068 31.1455 88.0645 34.0674C87.9427 34.6982 88.236 35.0856 88.9443 35.2295C89.2432 35.2848 89.7689 35.4066 90.5215 35.5947C91.1966 35.7497 91.7279 35.8604 92.1152 35.9268C93.3327 36.137 94.4118 36.1481 95.3525 35.96C95.3636 35.96 95.6182 36.043 96.1162 36.209C95.8174 36.6074 95.6569 36.8122 95.6348 36.8232C94.7715 37.7529 93.4268 38.1237 91.6006 37.9355C90.5824 37.8359 89.4368 37.8027 88.1641 37.8359C87.3008 37.8691 86.7972 37.8193 86.6533 37.6865C86.5094 37.5648 86.4209 37.0889 86.3877 36.2588C86.3766 36.1813 86.3656 35.9766 86.3545 35.6445ZM110.975 20.5537C110.62 19.5023 110.421 18.9434 110.377 18.877C109.757 17.7812 109.303 17.1947 109.016 17.1172C107.566 16.7077 106.442 16.9678 105.646 17.8975C102.823 21.1514 101.523 24.8867 101.744 29.1035C101.744 29.3027 102.281 31.068 103.354 34.3994L103.222 34.3496L103.155 34.3164C103.133 34.3053 103.133 34.3053 103.155 34.3164L103.139 34.2998C103.15 34.3109 103.15 34.3109 103.139 34.2998C103.128 34.2998 103.128 34.2998 103.139 34.2998C103.15 34.3109 103.144 34.3109 103.122 34.2998L103.089 34.2832L103.039 34.25L103.006 34.2334H102.989C103.011 34.2445 103.011 34.2445 102.989 34.2334C103.022 34.2445 103.022 34.2445 102.989 34.2334C103.011 34.2445 103.011 34.2445 102.989 34.2334C102.978 34.2223 102.978 34.2223 102.989 34.2334L102.973 34.2168C102.984 34.2279 102.984 34.2279 102.973 34.2168L102.906 34.1836C102.895 34.1836 102.895 34.1836 102.906 34.1836H102.89C102.912 34.1947 102.912 34.1947 102.89 34.1836C102.879 34.1836 102.873 34.1836 102.873 34.1836C102.895 34.1947 102.895 34.1947 102.873 34.1836V34.167H102.84C102.829 34.1781 102.823 34.2057 102.823 34.25C102.812 34.2943 102.807 34.3275 102.807 34.3496C103.039 34.3607 103.222 34.3717 103.354 34.3828C104.196 35.2572 104.804 35.7109 105.181 35.7441C105.557 35.7884 106.276 35.4785 107.339 34.8145C107.339 34.8145 107.444 34.748 107.654 34.6152L107.638 34.5986C108.08 34.7868 108.451 34.7591 108.75 34.5156C108.971 34.3385 109.132 34.0674 109.231 33.7021C109.375 33.193 109.641 32.5566 110.028 31.793C110.56 30.7415 110.864 30.1162 110.941 29.917C111.605 28.4007 111.694 26.9951 111.207 25.7002C110.975 25.0693 110.869 24.2337 110.892 23.1934C110.892 23.0384 110.908 22.5902 110.941 21.8486C110.964 21.3063 110.969 20.8691 110.958 20.5371C111.091 20.6367 111.296 20.7861 111.572 20.9854C111.539 20.6644 111.5 20.1553 111.456 19.458C111.401 19.458 111.318 19.458 111.207 19.458C111.107 19.4691 111.03 19.4746 110.975 19.4746V20.5537ZM101.794 36.541C102.137 36.6296 102.663 36.7679 103.371 36.9561C104.068 37.1331 104.594 37.2715 104.948 37.3711C105.07 37.0723 105.12 36.945 105.098 36.9893C104.511 36.5244 104.201 36.2865 104.168 36.2754C102.873 35.888 101.971 34.9196 101.462 33.3701C101.484 33.4365 101.241 33.2594 100.731 32.8389C100.488 32.6286 100.361 32.4681 100.35 32.3574C99.7409 28.7383 99.9346 25.252 100.931 21.8984C100.886 22.0534 101.584 20.9355 103.022 18.5449C103.587 17.6042 104.921 16.3148 107.023 14.6768C107.588 14.2451 108.152 14.1068 108.717 14.2617C109.281 14.4277 109.774 14.8649 110.194 15.5732L110.211 15.5566C109.812 15.3796 109.209 15.1029 108.401 14.7266C108.379 14.7708 108.346 14.8372 108.302 14.9258C108.246 15.0254 108.208 15.0973 108.186 15.1416C109.602 15.8057 110.355 16.1709 110.443 16.2373C111.307 16.9014 111.982 17.6208 112.469 18.3955C112.867 19.0153 113.094 19.7734 113.149 20.6699C113.493 25.9824 112.192 30.891 109.248 35.3955C107.887 37.4762 106.31 38.3063 104.517 37.8857C104.406 37.8636 103.504 37.4098 101.811 36.5244L101.794 36.541ZM119.375 37.2383C119.253 37.194 119.187 37.1719 119.176 37.1719C119.165 37.1719 119.098 37.194 118.977 37.2383C119.098 37.2826 119.165 37.3047 119.176 37.3047C119.187 37.3047 119.253 37.2826 119.375 37.2383ZM125.352 19.5742C125.451 19.5742 125.529 19.5742 125.584 19.5742C125.551 19.054 125.529 18.722 125.518 18.5781C125.518 18.5781 125.412 18.5615 125.202 18.5283C125.202 18.6501 125.191 18.8271 125.169 19.0596C125.147 19.292 125.13 19.4635 125.119 19.5742H125.352ZM113.913 35.6445C114.599 30.6198 115.451 27.1999 116.47 25.3848C116.614 25.1302 116.686 24.9974 116.686 24.9863C116.199 24.4551 116.138 24.112 116.503 23.957C116.603 23.9128 116.774 23.874 117.018 23.8408C117.261 23.8076 117.41 23.7799 117.466 23.7578C117.565 23.7135 118.246 23.6029 119.508 23.4258C121.389 23.1491 122.778 22.07 123.675 20.1885C124.029 19.4359 124.079 18.7773 123.824 18.2129C123.57 17.6484 123.038 17.2721 122.23 17.084C120.902 16.7741 119.53 16.6136 118.113 16.6025C117.671 16.6025 117.383 16.4476 117.25 16.1377C117.217 16.0381 117.184 15.8997 117.15 15.7227C117.128 15.4902 117.106 15.3464 117.084 15.291C117.073 15.2025 117.161 15.0752 117.35 14.9092C117.527 14.7432 117.698 14.6325 117.864 14.5771C119.436 14.057 121.09 14.1787 122.828 14.9424C124.566 15.695 125.794 16.8239 126.514 18.3291C127.122 19.613 127.006 20.7197 126.165 21.6494C125.313 22.5791 124.416 23.3372 123.476 23.9238C123.121 24.1341 122.463 24.4495 121.5 24.8701C120.648 25.2464 120.011 25.5895 119.591 25.8994C118.141 26.973 117.178 28.0299 116.702 29.0703C116.525 29.4798 116.165 31.1455 115.623 34.0674C115.501 34.6982 115.795 35.0856 116.503 35.2295C116.802 35.2848 117.327 35.4066 118.08 35.5947C118.755 35.7497 119.286 35.8604 119.674 35.9268C120.891 36.137 121.97 36.1481 122.911 35.96C122.922 35.96 123.177 36.043 123.675 36.209C123.376 36.6074 123.215 36.8122 123.193 36.8232C122.33 37.7529 120.985 38.1237 119.159 37.9355C118.141 37.8359 116.995 37.8027 115.723 37.8359C114.859 37.8691 114.356 37.8193 114.212 37.6865C114.068 37.5648 113.979 37.0889 113.946 36.2588C113.935 36.1813 113.924 35.9766 113.913 35.6445ZM131.859 26.2646C131.76 26.3532 131.704 26.403 131.693 26.4141C131.693 26.4141 131.71 26.4639 131.743 26.5635C131.843 26.4971 131.898 26.4583 131.909 26.4473C131.909 26.4362 131.893 26.3753 131.859 26.2646ZM130.681 26.4805C130.636 26.3919 130.609 26.3366 130.598 26.3145C130.587 26.3145 130.57 26.32 130.548 26.3311C130.515 26.3421 130.498 26.3532 130.498 26.3643C130.498 26.3753 130.504 26.4417 130.515 26.5635C130.581 26.5303 130.636 26.5026 130.681 26.4805ZM135.661 35.7607C135.761 35.6943 135.811 35.6556 135.811 35.6445C135.811 35.6445 135.788 35.5837 135.744 35.4619C135.711 35.484 135.672 35.5117 135.628 35.5449C135.573 35.5781 135.534 35.6058 135.512 35.6279C135.556 35.6722 135.606 35.7165 135.661 35.7607ZM135.196 34.9473C136.126 34.9141 137.045 34.4935 137.952 33.6855C138.86 32.8665 139.358 32.0254 139.446 31.1621C139.557 29.9889 139.153 28.9264 138.234 27.9746C137.316 27.0228 136.286 26.5856 135.146 26.6631C132.867 26.807 131.45 27.9193 130.896 30C130.642 30.9518 130.548 31.5384 130.614 31.7598C130.891 32.6673 131.489 33.4365 132.407 34.0674C133.315 34.6872 134.244 34.9805 135.196 34.9473ZM130.149 20.4375C130.371 19.6849 130.797 18.9655 131.428 18.2793C131.583 18.1022 132.186 17.5433 133.237 16.6025C133.503 16.359 134.256 15.7669 135.495 14.8262C136.026 14.4167 136.641 14.2174 137.338 14.2285C138.046 14.2285 138.622 14.4443 139.064 14.876C139.098 14.9092 139.269 15.3187 139.579 16.1045C138.993 16.0713 138.683 16.0547 138.649 16.0547C137.056 15.8112 135.844 16.1875 135.014 17.1836C133.143 19.4525 131.76 21.8818 130.863 24.4717C130.852 24.5049 130.825 24.8812 130.78 25.6006C131.522 25.6117 131.909 25.6117 131.942 25.6006C133.625 24.9919 135.556 24.9753 137.736 25.5508C138.843 25.8496 139.695 26.6742 140.293 28.0244C140.835 29.264 140.968 30.6751 140.691 32.2578C140.415 33.8405 139.823 35.1243 138.915 36.1094C137.886 37.2051 136.973 37.8249 136.176 37.9688C135.357 38.1016 134.3 37.8027 133.005 37.0723C130.979 35.9434 129.757 35.1299 129.336 34.6318C128.528 33.68 127.991 32.3574 127.726 30.6641C127.261 27.6979 127.77 24.848 129.253 22.1143L129.236 22.0811C129.281 22.2692 129.341 22.485 129.419 22.7285C129.651 22.4961 129.773 22.3688 129.784 22.3467C130.006 21.8376 130.216 21.2952 130.415 20.7197C130.415 20.7197 130.321 20.6201 130.133 20.4209L130.149 20.4375Z" fill="#730C21"/>
<path d="M52.8225 45.2805C55.1059 45.4236 57.2466 45.5636 59.9508 45.7186C59.9523 45.7187 59.9537 45.7187 59.9552 45.7188C60.3409 45.7408 60.7406 45.7632 61.1533 45.7857C64.4629 45.9627 68.7761 46.1799 75.2759 46.318C76.2227 46.3375 77.138 46.3544 78.0321 46.3691C83.9214 46.4652 88.6263 46.4711 91.6528 46.4845C92.3051 46.4866 92.9743 46.4841 94.6738 46.456C95.7848 46.4371 97.293 46.4079 99.4624 46.3519C100.619 46.3219 101.96 46.284 103.535 46.2333C108.741 46.0708 116.904 45.692 124.408 45.1813C127.294 44.9872 130.086 44.7779 132.561 44.574C134.009 44.4548 135.354 44.3368 136.557 44.2247C141.321 43.7308 146.01 43.4174 150.731 42.0124C150.993 41.9293 151.253 41.8421 151.514 41.7506C154.667 40.6481 157.888 38.7469 159.995 35.4749C160.517 34.6727 160.769 33.6809 160.83 32.6085C160.839 32.4558 160.844 32.3022 160.847 32.1479C160.645 28.3033 157.289 25.1514 154.386 22.3754C154.373 22.3635 154.36 22.3516 154.347 22.3397C153.952 21.9802 153.532 21.6403 153.094 21.3184C150.047 19.1176 146.373 17.6274 142.422 16.1271C142.268 16.069 142.112 16.0112 141.956 15.9534C135.109 13.4035 129.19 12.5656 122.712 11.9846C120.108 11.7637 117.414 11.6115 114.464 11.508C114.009 11.4921 113.526 11.4767 113.016 11.4621C108.496 11.3284 102.463 11.3215 96.4133 11.4238C95.8357 11.4333 95.2732 11.4434 94.6974 11.4543C94.6945 11.4544 94.6916 11.4544 94.6887 11.4545C88.5341 11.5718 82.506 11.7713 78.0754 11.9376C71.0385 12.2065 68.3982 12.3464 66.1898 12.4544C65.3609 12.4958 64.5906 12.5345 63.6769 12.5785C60.3788 12.7365 55.4003 12.9548 50.3529 13.1795C50.3336 13.1804 50.3144 13.1812 50.2951 13.1821C49.4578 13.2193 48.7784 13.1934 48.7792 13.1242C48.7802 13.055 49.4609 12.9686 50.2983 12.9313C52.972 12.8125 55.581 12.6969 57.9154 12.5923C58.0338 12.5276 58.6625 12.4547 59.4158 12.422C61.3032 12.3427 67.0819 12.031 76.1267 11.6134C75.5027 11.626 74.9892 11.6351 74.5325 11.6427C73.9982 11.6516 73.5846 11.6576 73.2353 11.6626C72.504 11.6733 72.0128 11.6809 71.1467 11.7069C69.1409 11.7775 65.9903 11.9063 62.673 12.0481C61.836 12.0838 61.1582 12.0571 61.1586 11.9879C61.16 11.9187 61.8393 11.8332 62.6766 11.7975C62.693 11.7968 62.7095 11.7961 62.7259 11.7953C66.011 11.6549 69.2655 11.5218 71.3585 11.4486C71.8936 11.4298 72.3533 11.4147 72.6978 11.404C72.9733 11.3955 73.3165 11.3851 73.507 11.3818C73.5323 11.3813 73.5806 11.3805 73.6387 11.3799C73.6397 11.3799 73.6407 11.3799 73.6416 11.3799C73.6741 11.3796 73.8397 11.3778 74.0164 11.3811C74.0521 11.3818 74.1297 11.3833 74.2197 11.3873C74.2429 11.3869 74.2661 11.3866 74.2893 11.3863C74.6125 11.3817 74.9416 11.3771 75.297 11.3714C76.6907 11.35 78.8904 11.301 83.4804 11.1919C87.7011 11.1001 94.8324 10.8753 103.736 10.8466C103.126 10.8427 102.538 10.8402 101.929 10.8391C100.417 10.8365 98.8898 10.8426 97.3672 10.8551C96.788 10.8598 96.1987 10.8657 95.6206 10.8722C94.6781 10.8829 93.7299 10.8959 92.7828 10.9109C92.1354 10.9212 91.5062 10.9319 90.8621 10.9438C90.8606 10.9438 90.8592 10.9438 90.8577 10.9439C89.9615 10.9604 89.0831 10.9778 88.1782 10.9971C87.866 11.0036 87.5565 11.0103 87.2483 11.0172C86.0153 11.0446 84.814 11.0734 83.4284 11.103C83.26 11.106 83.0766 11.1087 82.9396 11.1105C82.7923 11.1125 82.6504 11.1143 82.5161 11.1158C82.3976 11.1171 82.2845 11.1182 82.176 11.1194C82.1614 11.1195 82.1469 11.1197 82.1323 11.1199C82.0118 11.1211 81.8972 11.1224 81.7866 11.1238C81.6763 11.1251 81.5698 11.1264 81.465 11.1279C81.464 11.128 81.463 11.128 81.4621 11.128C81.3525 11.1297 81.2692 11.131 81.1529 11.1332C81.0069 11.136 80.8813 11.1386 80.7289 11.1421C80.5815 11.1456 80.4276 11.1494 80.272 11.1536C80.1163 11.1577 79.9579 11.1621 79.7989 11.1667C79.6394 11.1713 79.477 11.1761 79.3131 11.1811C79.1494 11.1861 78.9833 11.1913 78.8161 11.1965C78.6488 11.2018 78.4794 11.2071 78.3091 11.2126C77.9154 11.2252 77.5429 11.225 77.2673 11.2116C76.992 11.1982 76.8375 11.1728 76.8381 11.1405C76.8388 11.1083 76.9947 11.0714 77.271 11.038C77.5475 11.0046 77.9209 10.9774 78.3145 10.962C78.4213 10.9578 78.5286 10.9536 78.6362 10.9494C78.7 10.9469 78.7645 10.9445 78.8287 10.942C79.0012 10.9353 79.1752 10.9286 79.3502 10.922C79.5249 10.9155 79.7011 10.909 79.8789 10.9026C80.0565 10.8962 80.2409 10.8898 80.4253 10.8835C80.6097 10.8773 80.798 10.8712 80.9889 10.8654C81.1752 10.8597 81.3873 10.8537 81.5768 10.8488C81.7153 10.8452 81.8857 10.8413 82.0277 10.8382C82.1757 10.8349 82.3244 10.8319 82.4659 10.8292C82.6082 10.8265 82.7455 10.8241 82.8765 10.8218C82.8905 10.8215 82.9045 10.8213 82.9185 10.821C83.0343 10.819 83.146 10.8171 83.2514 10.8152C83.3693 10.813 83.4807 10.8109 83.5865 10.8087C83.703 10.8064 83.7737 10.8047 83.8604 10.8025C85.0132 10.7696 86.4343 10.7255 87.7908 10.6867C87.9607 10.6818 88.1287 10.677 88.2961 10.6723C89.1964 10.6469 90.07 10.6233 90.9683 10.6006C91.6165 10.5842 92.2549 10.5687 92.9085 10.5539C93.8594 10.5323 94.8204 10.5125 95.7707 10.4952C96.3594 10.4845 96.9517 10.4746 97.5386 10.4659C99.0869 10.4427 100.634 10.4262 102.188 10.4189C103.726 10.4116 105.308 10.4134 106.859 10.428C108.418 10.4424 110.039 10.4709 111.593 10.5174C112.081 10.532 112.567 10.5491 113.043 10.568C113.727 10.5951 114.363 10.6249 115.01 10.6583C115.595 10.6887 116.165 10.7212 116.731 10.7562C116.733 10.7563 116.735 10.7564 116.737 10.7566C117.224 10.7868 117.724 10.8197 118.205 10.8533C119.244 10.9259 120.27 11.0062 121.284 11.0947C122.306 11.1839 123.314 11.281 124.338 11.3911C125.357 11.5007 126.371 11.6214 127.396 11.7579C128.421 11.8946 129.418 12.0414 130.468 12.2154C131.85 12.445 133.22 12.7062 134.61 13.0184C135.998 13.3303 137.382 13.6893 138.754 14.1C139.238 14.2446 139.713 14.3935 140.193 14.55C140.195 14.5506 140.197 14.5512 140.199 14.5518C140.874 14.7719 141.545 15.0036 142.213 15.2444C142.423 15.3198 142.627 15.394 142.835 15.4697C144.183 15.9621 145.53 16.4752 146.869 17.0323C148.207 17.5901 149.541 18.1911 150.845 18.8835C152.147 19.5777 153.454 20.3775 154.639 21.3724C154.76 21.4741 154.883 21.5806 155.001 21.6866C155.895 22.489 156.76 23.3185 157.573 24.182C157.815 24.4389 158.055 24.7016 158.287 24.9655C159.394 26.2297 160.387 27.5447 161.095 29.0363C161.542 29.9933 161.873 31.0494 161.858 32.1645C161.85 32.7471 161.804 33.3387 161.686 33.9284C161.541 34.6561 161.276 35.383 160.864 36.0304C160.369 36.8123 159.793 37.552 159.152 38.2336C158 39.4586 156.666 40.4725 155.201 41.3058C154.147 41.9051 153.038 42.4041 151.892 42.8193C151.458 42.9765 151.017 43.1256 150.57 43.2626C149.669 43.5399 148.701 43.776 147.782 43.9665C146.85 44.1599 145.932 44.3193 145.015 44.4631C144.645 44.521 144.271 44.5768 143.91 44.6286C143.37 44.7061 142.848 44.7766 142.321 44.8447C141.442 44.9584 140.586 45.0608 139.744 45.1572C138.915 45.2522 138.095 45.3419 137.319 45.4255C136.508 45.5126 135.847 45.5827 135.039 45.6677C134.122 45.7612 133.367 45.8329 132.67 45.8966C131.927 45.9645 131.25 46.0229 130.548 46.0821C130.28 46.1047 130.012 46.1271 129.733 46.1503C128.126 46.2827 126.507 46.4057 124.928 46.5179C123.329 46.6315 121.749 46.7357 120.147 46.8338C118.57 46.9303 116.97 47.0207 115.381 47.1034C113.802 47.1856 112.204 47.2616 110.624 47.3296C109.037 47.3979 107.415 47.4603 105.86 47.5132C104.959 47.5439 104.007 47.5732 103.117 47.5983C102.475 47.6163 101.848 47.6328 101.227 47.6482C100.972 47.6546 100.724 47.6605 100.475 47.6664C99.6177 47.6867 98.783 47.705 97.9783 47.7221C97.1693 47.7393 96.3952 47.7551 95.6298 47.7711C94.8656 47.787 94.1195 47.8027 93.37 47.8188C92.597 47.8355 91.9502 47.8496 91.1284 47.8679C90.593 47.8798 90.067 47.8909 89.5428 47.9011C88.7602 47.9165 87.9795 47.9303 87.1963 47.9427C86.4135 47.955 85.6391 47.9657 84.8621 47.975C84.6122 47.978 84.3482 47.9809 84.0973 47.9836C83.3226 47.9918 82.5569 47.9985 81.7916 48.0038C81.0276 48.0091 80.2713 48.013 79.5173 48.0155C79.0125 48.0172 78.5136 48.0183 78.0125 48.0188C77.7613 48.0191 77.5097 48.0192 77.2566 48.0192C75.9678 48.0191 74.7324 48.0048 73.651 47.9872C72.5573 47.9693 71.5334 47.9468 70.5405 47.9222C70.3551 47.9176 70.1678 47.9128 69.9812 47.9079C69.1767 47.8869 68.3915 47.8644 67.6116 47.8407C66.6559 47.8116 65.7105 47.7808 64.7709 47.7482C63.8314 47.7156 62.8933 47.6812 61.9592 47.6452C61.0242 47.6093 60.1196 47.5728 59.1574 47.5324C58.1959 47.4918 57.2285 47.4508 56.1623 47.402C55.1079 47.3538 54.0032 47.2997 52.8783 47.239C51.762 47.1789 50.6251 47.1123 49.4918 47.0401C48.3648 46.9684 47.2291 46.8905 46.1073 46.8079C44.9862 46.7254 43.8659 46.6375 42.7543 46.5449C41.6463 46.4526 40.496 46.3511 39.431 46.2518C37.6939 46.09 35.967 45.9174 34.2383 45.7313C32.5191 45.5461 30.7954 45.3473 29.0774 45.1315C28.2159 45.0232 27.339 44.9084 26.4866 44.7912C25.6224 44.6723 24.7911 44.5532 23.9329 44.4239C22.2263 44.1661 20.5179 43.8845 18.8045 43.5527C18.4277 43.4797 18.0571 43.4053 17.6719 43.3249C16.3542 43.0492 15.0142 42.7343 13.7037 42.3454C13.6948 42.3427 13.6859 42.34 13.677 42.3374C12.1384 41.8831 10.6095 41.2877 9.20221 40.5122C9.06854 40.4398 8.93717 40.369 8.80512 40.2981C8.25735 40.0039 7.72815 39.724 7.18899 39.4388C6.65063 39.1539 6.11508 38.8709 5.57807 38.5786C5.03824 38.2843 4.49968 37.9832 3.97156 37.6569C3.43545 37.3222 2.91144 36.9765 2.39614 36.502C2.04908 36.173 1.68537 35.7826 1.44187 35.1837C1.38694 35.0451 1.33004 34.8939 1.27808 34.7487C1.25889 34.6952 1.23982 34.641 1.22089 34.5862C0.998277 33.9445 0.794408 33.205 0.642414 32.5126C0.243159 30.6804 0.0609198 28.8589 0.113866 26.9903C0.169992 25.2159 0.447932 23.421 1.10942 21.7006C1.14224 21.6156 1.17572 21.5301 1.20963 21.445C1.47882 20.7688 1.78434 20.0886 2.1506 19.4278C2.71767 18.4001 3.44587 17.4174 4.34003 16.5944C4.83264 16.139 5.37043 15.7331 5.93874 15.3812C6.97889 14.7364 8.04462 14.1194 9.1342 13.5371C10.7687 12.6629 12.4592 11.8665 14.1762 11.1601C15.8904 10.4543 17.6569 9.82794 19.4193 9.29177C19.9471 9.13109 20.4697 8.97962 21.0004 8.83308C22.4409 8.43464 23.8919 8.07629 25.3603 7.76503C27.3591 7.34044 29.3691 7.00182 31.3751 6.7178C33.3859 6.43338 35.4002 6.20202 37.4109 6.00338C37.757 5.9692 38.0883 5.93749 38.4362 5.90499C40.1031 5.74971 41.7795 5.61326 43.4509 5.48822C44.656 5.39815 45.8607 5.31413 47.0661 5.23448C47.7045 5.18296 48.3143 5.13482 48.9017 5.08942C53.2433 4.75699 56.386 4.54773 60.5293 4.31167C60.9272 4.28814 61.249 4.26745 61.6423 4.24248C61.718 4.23769 61.7979 4.23269 61.8791 4.22758C62.3872 4.19553 62.9823 4.15913 63.8015 4.11574C64.5808 4.07455 65.5571 4.02743 66.7079 3.98304C67.9975 3.93378 69.488 3.88566 71.203 3.86355C72.0308 3.85319 72.5546 3.91042 72.3788 3.98144C72.2519 4.03153 71.8184 4.07663 71.2848 4.10437C72.271 4.08394 73.2519 4.06665 74.2452 4.0837C74.6409 4.09073 75.019 4.12 75.283 4.15978C75.5468 4.19943 75.6759 4.24054 75.6516 4.27101C75.6274 4.30205 75.4486 4.31918 75.1499 4.32604C74.851 4.33279 74.4608 4.33445 74.0673 4.33219C73.0195 4.32692 71.9851 4.35474 70.9477 4.38563C69.913 4.41746 68.8796 4.45682 67.846 4.4992C67.4769 4.51437 67.1113 4.52983 66.7323 4.54623C66.0757 4.57466 65.4084 4.60473 64.7429 4.63571C63.71 4.68381 62.6768 4.73423 61.6419 4.7869C60.6004 4.83991 59.5786 4.89412 58.5393 4.95125C57.9139 4.98563 57.2839 5.021 56.6683 5.05642C56.4382 5.06963 56.2104 5.08291 55.9874 5.09594C55.8041 5.10666 55.6192 5.11748 55.4283 5.12876C53.4275 5.24722 51.4064 5.3751 49.4049 5.51242C47.3932 5.6505 45.3861 5.79864 43.3769 5.96332C41.7466 6.09712 40.1096 6.24213 38.4854 6.40468C38.1022 6.44306 37.7388 6.48052 37.3563 6.5211C35.3538 6.7339 33.3508 6.97916 31.3568 7.27657C29.3626 7.57432 27.3763 7.92487 25.4025 8.36001C23.9727 8.67459 22.5645 9.03328 21.1676 9.42933C21.0741 9.4558 20.9809 9.4824 20.888 9.50913C20.3036 9.68255 19.7253 9.86307 19.1589 10.0488C17.5084 10.5897 15.8841 11.2064 14.3116 11.8867C16.9056 10.7979 19.0921 10.0721 21.1784 9.46776C21.3501 9.41828 21.5252 9.36843 21.696 9.32036C21.998 9.23542 22.2947 9.1537 22.5945 9.07321C25.643 8.25748 28.641 7.65249 32.7018 7.10144C34.7776 6.82237 36.7011 6.61294 38.4887 6.43864C46.6155 5.68271 51.7688 5.43336 55.2078 5.23219C59.4042 5.00631 61.2039 4.94556 62.8934 4.90908C63.8951 4.88853 65.2992 4.84539 66.7433 4.80021C68.7444 4.73677 70.8363 4.67113 72.1719 4.64115C73.0115 4.62078 73.6844 4.67465 73.6842 4.74399C73.6768 4.81288 73.0012 4.87136 72.1636 4.89179C70.8527 4.92147 68.8136 4.98591 66.7543 5.0527C64.9986 5.10906 63.2389 5.16523 61.9331 5.19364C60.6696 5.22284 59.2213 5.26665 55.0899 5.4895C51.7079 5.68817 46.6131 5.93451 38.5132 6.68783C36.7222 6.86248 34.7917 7.07266 32.707 7.3534C28.799 7.88565 25.9269 8.45492 22.9146 9.24792C22.6215 9.32548 22.3225 9.40667 22.0245 9.48948C22.0227 9.48998 22.0208 9.49048 22.019 9.49098C21.7628 9.56215 21.5048 9.63523 21.2462 9.70972C18.7087 10.4485 15.9358 11.3752 12.4807 12.9719C10.5188 13.8823 8.45906 14.9915 6.46758 16.2353C4.27393 17.5492 2.87783 19.8424 2.06246 22.0695C0.272706 27.1022 1.5382 31.7304 1.92854 33.2478C2.07793 33.7729 2.24561 34.2803 2.44997 34.7867C2.469 34.8337 2.49096 34.8815 2.5148 34.9278C3.52752 36.5334 5.86175 37.3996 9.74514 39.5041C10.5267 39.9237 11.4033 40.3332 12.4142 40.6978C13.7249 41.1747 15.3217 41.6067 17.0732 41.9898C19.7142 42.5324 22.3187 42.9128 24.5779 43.2257C25.2825 43.3225 25.9733 43.4114 26.6619 43.4956C27.8359 43.6387 28.967 43.762 30.0879 43.8762C30.5803 43.926 31.1062 43.978 31.6037 44.0253C32.8376 44.1434 34.0429 44.2507 35.2476 44.3572C36.1906 44.4402 37.1911 44.5226 38.247 44.6049C42.0847 44.9023 46.6866 45.2131 52.6857 45.5948C59.0474 45.9964 64.4941 46.2406 69.1978 46.3991C65.7473 46.2768 63.0799 46.143 60.8625 46.0215C60.4424 45.9983 60.0414 45.9757 59.6566 45.9535C56.9315 45.7957 54.9491 45.6643 52.8253 45.5314C42.6819 44.8694 38.8986 44.4778 34.6091 44.1059C33.4901 44.0043 32.235 43.8883 30.9004 43.755C29.583 43.6233 28.1735 43.4736 26.689 43.2956C25.1627 43.1123 23.5539 42.901 21.9121 42.6478C18.8888 42.1585 15.4549 41.6394 12.0745 40.4188C12.0732 40.4183 12.0719 40.4178 12.0705 40.4172C11.4148 40.1726 10.7637 39.8877 10.1244 39.5637C10.0181 39.51 9.90843 39.4535 9.80226 39.398C7.34183 37.9615 4.08569 37.0466 2.52465 34.7573C1.99019 33.4205 1.65128 31.9908 1.43883 30.5659C1.36878 30.0884 1.29914 29.5145 1.25366 28.8526C1.14987 27.1299 1.12526 24.7192 2.10283 22.0851C2.86709 20.0288 4.1341 17.7 6.49411 16.2781C7.71065 15.5258 9.01306 14.784 10.3884 14.0831C12.005 13.2602 13.727 12.4861 15.7377 11.724C16.3511 11.4919 16.9895 11.2624 17.6616 11.0345C18.765 10.6606 19.9665 10.2882 21.306 9.923C23.487 9.32532 26.0169 8.73532 29.0509 8.22785C31.846 7.75628 35.0903 7.34721 38.5453 7.01369C40.0664 6.86647 41.6432 6.73053 43.2257 6.60464C45.7739 6.40211 48.3715 6.22252 50.9326 6.06156C56.4581 5.71652 61.6663 5.45743 66.7628 5.24914C68.8112 5.16793 70.8279 5.08949 72.8459 5.05757C72.8473 5.05755 72.8487 5.05753 72.8501 5.0575C73.6879 5.04437 74.3336 5.11145 74.3025 5.18042C74.2715 5.24833 73.5809 5.2954 72.7515 5.30955C70.7626 5.34302 68.787 5.41954 66.7737 5.49944C61.6538 5.70866 56.4316 5.96855 50.8911 6.31502C48.37 6.4737 45.7939 6.65176 43.2574 6.85327C41.6757 6.97904 40.0959 7.11514 38.5698 7.26284C35.0793 7.59972 31.7931 8.01532 28.9731 8.49509C26.0124 8.99434 23.5264 9.57481 21.3738 10.1649C19.9203 10.5614 18.626 10.9674 17.4474 11.3738C16.7431 11.6168 16.0854 11.8583 15.4651 12.0979C13.4905 12.8627 11.8902 13.5957 10.3642 14.377C9.04242 15.0554 7.79482 15.7681 6.62584 16.4909C4.32299 17.8801 3.0945 20.1401 2.3367 22.1756C1.43817 24.5875 1.40847 26.8334 1.48442 28.4978C1.5197 29.1702 1.58265 29.7606 1.64963 30.2601C1.85373 31.7555 2.20088 33.2683 2.7592 34.665C4.11577 36.6962 7.4083 37.7369 9.85372 39.1394C9.87652 39.1514 9.89935 39.1633 9.92223 39.1753C10.5253 39.4917 11.1271 39.7735 11.7447 40.02C11.746 40.0204 11.7473 40.0209 11.7486 40.0214C15.0549 41.3014 18.5413 41.8396 21.6118 42.3461C23.4339 42.6317 25.1135 42.8506 26.7231 43.0434C27.8776 43.181 28.9912 43.3022 30.0822 43.4147C31.4623 43.5566 32.7937 43.6833 34.1165 43.8057C38.6521 44.2066 42.6544 44.617 52.8225 45.2805ZM69.7664 4.143C68.6263 4.16699 67.6127 4.19971 66.7188 4.23355C66.0341 4.25948 65.4089 4.28697 64.879 4.3123C65.4862 4.28854 66.1147 4.2647 66.7192 4.24294C67.151 4.22728 67.572 4.21258 67.9921 4.19849C68.582 4.17867 69.1767 4.15983 69.7664 4.143ZM17.2603 42.2865C16.9433 42.2223 16.6131 42.1527 16.2982 42.0835C17.1846 42.288 18.0781 42.4715 18.9732 42.6412C20.0703 42.849 21.1733 43.0369 22.2768 43.2118C20.5321 42.9312 18.8242 42.6231 17.2603 42.2865ZM52.6842 45.8455C47.028 45.4852 42.7927 45.206 38.9822 44.9183C37.8859 44.8349 36.8297 44.7503 35.7674 44.6581C35.3349 44.6206 34.8955 44.5824 34.4554 44.5437C37.0146 44.8179 39.3617 45.0412 41.2883 45.2139C47.0344 45.7226 50.313 45.9518 53.1898 46.1544C54.0288 46.2122 54.8195 46.2647 55.6433 46.3168C56.3162 46.3471 57.0229 46.378 57.7324 46.4085C58.7247 46.4512 59.7999 46.4955 60.8251 46.5354C61.8497 46.5754 62.8977 46.6141 63.9199 46.6497C64.9578 46.686 65.9772 46.7193 66.998 46.7504C67.9562 46.7795 68.9132 46.8064 69.8385 46.8298C69.8915 46.8312 69.9446 46.8325 69.9977 46.8338C70.9752 46.8582 71.9285 46.8791 72.801 46.8941C73.6902 46.9094 74.4317 46.918 75.0873 46.9207C75.9084 46.9241 76.7482 46.9261 77.5809 46.9265C77.7292 46.9266 77.8773 46.9266 78.0255 46.9266C78.7086 46.9264 79.3902 46.9251 80.0701 46.9227C80.8983 46.9197 81.7188 46.9151 82.5413 46.9089C82.8072 46.9069 83.0854 46.9046 83.3491 46.9022C83.4706 46.9012 83.5921 46.9 83.7132 46.8989C82.1044 46.8984 80.4343 46.8898 78.7076 46.8699C78.4819 46.8673 78.2547 46.8644 78.0263 46.8614C75.7295 46.8305 73.2857 46.777 70.6164 46.6952C65.6098 46.5398 59.804 46.2938 52.6842 45.8455ZM108.094 46.3387C107.399 46.3683 106.373 46.4123 105.053 46.4639C104.738 46.4761 104.411 46.4888 104.067 46.5017C104.075 46.5015 104.083 46.5012 104.091 46.501C104.942 46.477 105.74 46.4525 106.587 46.4242C108.112 46.3731 109.578 46.3179 111.076 46.2554C112.57 46.193 114.066 46.1244 115.557 46.0498C117.047 45.9753 118.559 45.8933 120.036 45.8069C121.544 45.7187 123.019 45.6261 124.509 45.5256C124.987 45.4933 125.468 45.4601 125.938 45.4269C124.881 45.4938 123.767 45.563 122.603 45.6318C121.667 45.6871 120.697 45.7423 119.672 45.7975C119.284 45.8184 118.804 45.8432 118.252 45.871C116.062 45.9805 112.622 46.1448 108.094 46.3387ZM137.822 44.3872C138.167 44.3514 138.516 44.3148 138.846 44.2795C139.815 44.1761 140.755 44.0706 141.674 43.9592C142.31 43.882 142.961 43.7987 143.581 43.7136C143.852 43.6763 144.103 43.6408 144.372 43.6015C144.804 43.5384 145.24 43.4713 145.672 43.4002C142.655 43.8762 139.666 44.1826 136.566 44.4751C136.525 44.4789 136.484 44.4828 136.443 44.4867C136.906 44.4546 137.382 44.4199 137.822 44.3872Z" fill="#730C21"/>
</svg>
