<svg width="101" height="79" viewBox="0 0 101 79" fill="none" xmlns="http://www.w3.org/2000/svg">
<path d="M21.4667 0.663131C21.4667 1.59813 24.1203 2.22146 29.3644 2.53312L34.419 2.84479L31.2599 1.78513C27.5953 0.538465 21.4667 -0.147199 21.4667 0.663131Z" fill="black"/>
<path d="M31.2599 0.351443C32.5867 1.5981 39.7262 3.59276 45.4758 4.27843C51.2253 5.02642 59.3757 7.08341 59.3757 7.76908C59.3757 8.33007 53.2471 7.39508 47.7503 6.08608C45.0335 5.40042 42.6958 4.96409 42.5062 5.15109C41.8112 5.83675 51.2253 8.14307 56.0903 8.45474C60.7026 8.76641 61.2712 8.70407 60.8921 7.83141C60.3235 6.33542 54.258 4.27843 47.6239 3.2811C42.5062 2.5331 35.3035 1.09944 31.8917 0.102111C31.0703 -0.0848875 30.8808 -0.0225544 31.2599 0.351443Z" fill="black"/>
<path d="M20.6453 5.58741C20.3294 7.70674 22.3512 13.6284 23.1094 12.818C23.299 12.631 23.1726 11.9454 22.7935 11.2597C22.4144 10.5117 22.0985 8.89106 22.0985 7.58207C22.0985 4.27842 21.0876 2.90709 20.6453 5.58741Z" fill="black"/>
<path d="M28.4167 5.58753C27.153 5.96152 27.4058 6.08619 29.6803 5.96152C32.3339 5.83686 32.5235 5.89919 32.3971 7.39518C32.2708 8.76651 32.3339 8.82884 32.9026 7.83152C34.4189 5.33819 32.2708 4.27853 28.4167 5.58753Z" fill="black"/>
<path d="M80.8575 8.01838C76.1821 8.95338 75.803 9.14038 78.0144 9.26504C79.7203 9.38971 80.0362 9.51437 78.9621 9.70137C67.2103 11.509 60.513 13.0674 61.3344 13.8777C61.4607 14.0024 67.0207 13.379 73.5916 12.3817C86.0384 10.574 93.0516 8.89104 92.6725 7.76905C92.2934 6.64705 86.6071 6.77172 80.8575 8.01838Z" fill="black"/>
<path d="M42.3799 9.14044C43.2012 9.76377 44.4649 10.5118 45.1599 10.8234C46.3603 11.2598 46.3603 11.3221 44.9071 11.6961C42.3167 12.3818 42.5694 13.6284 45.2862 13.6284C47.0553 13.6284 47.4344 13.4414 46.7394 13.0051C46.0444 12.5688 46.2339 12.3818 47.7503 12.3818C48.8244 12.3818 50.088 12.0078 50.4671 11.5091C51.0358 10.8234 50.5935 10.6364 48.003 10.3248C46.2339 10.1378 44.2121 9.51444 43.454 8.95344C41.4953 7.64445 40.5476 7.76911 42.3799 9.14044Z" fill="black"/>
<path d="M93.6835 11.6961C94.8207 15.9348 94.2521 16.6827 82.753 26.656C78.3303 30.5207 78.8358 31.0194 83.5744 27.5287C90.0189 22.7291 93.9994 18.4904 94.4416 15.8724C94.9471 13.3791 94.3785 9.26512 93.5571 9.26512C93.2412 9.26512 93.3044 10.3248 93.6835 11.6961Z" fill="black"/>
<path d="M58.7439 11.696C58.7439 13.2543 55.9639 16.558 53.563 17.7423C52.5521 18.3033 49.6458 19.1136 47.1817 19.6123C44.5912 20.1733 42.1271 21.0459 41.369 21.7316C40.2317 22.8536 40.5476 22.8536 45.9812 21.4199C52.8048 19.6123 54.6371 18.7396 56.9748 16.3086C58.5544 14.688 60.0707 10.5117 59.123 10.5117C58.9335 10.5117 58.7439 11.0727 58.7439 11.696Z" fill="black"/>
<path d="M83.5744 14.875C82.753 15.1867 82.1212 15.5607 82.1212 15.623C82.1212 15.7477 83.5744 15.81 85.2803 15.81C87.1125 15.81 88.3762 15.5607 88.2498 15.1867C87.9339 14.314 85.2803 14.1893 83.5744 14.875Z" fill="black"/>
<path d="M32.5867 16.4333C33.029 18.8643 33.9767 19.7993 34.7349 18.615C35.6194 17.2436 35.4931 16.4956 34.4821 17.306C33.7871 17.9293 33.4712 17.68 32.9026 16.3086L32.2076 14.5633L32.5867 16.4333Z" fill="black"/>
<path d="M21.5931 16.1217C20.7717 16.4957 19.6344 17.9294 18.8762 19.55C17.3599 22.8537 17.8022 23.7887 21.909 26.4067C25.7631 28.7753 25.8894 28.0897 22.0353 25.4717C19.7608 23.9134 18.9394 23.0407 19.0658 22.1057C19.4449 19.3631 24.1203 20.7344 28.5431 24.8484C29.8699 26.095 30.944 26.9677 30.944 26.7807C30.944 26.095 25.6999 21.2954 24.1835 20.5474C23.4253 20.1734 22.0353 19.8617 21.1508 19.8617C20.0767 19.8617 19.5712 19.55 19.6976 19.0514C20.1399 17.8047 23.299 16.6204 25.1312 17.0567C27.3426 17.6177 30.628 21.1084 31.8285 24.3497C32.8394 26.9053 32.8394 26.9677 32.5235 24.8484C32.0812 22.0434 29.4908 18.2411 26.9635 16.7451C24.7521 15.3737 23.8044 15.3114 21.5931 16.1217Z" fill="black"/>
<path d="M64.683 18.1164C63.1667 19.4877 62.0294 20.7967 62.2189 20.9837C62.4085 21.1707 63.6721 20.2357 65.0621 18.9267L67.5894 16.4957L70.4958 17.867L73.3389 19.2384L74.9817 17.9917C76.2453 17.0567 76.8139 16.932 77.4457 17.4307C78.5198 18.3034 78.6462 17.306 77.5721 16.2464C77.0667 15.7477 76.4348 15.81 75.0448 16.6204C73.4021 17.5554 73.0862 17.5554 70.3694 16.558L67.5262 15.5607L64.683 18.1164Z" fill="black"/>
<path d="M56.2167 22.9784C56.2167 24.4121 60.513 27.8404 63.6089 28.8377C66.3889 29.7727 74.5394 31.1441 74.5394 30.7077C74.5394 30.1467 70.6853 28.6507 67.5894 27.9651C63.6089 27.0301 59.6917 25.2848 57.6699 23.4148C56.7221 22.6044 56.2167 22.4174 56.2167 22.9784Z" fill="black"/>
<path d="M35.9985 27.3417C34.9876 27.6533 35.8722 27.7156 38.2099 27.5287C41.4321 27.2793 42.2535 27.404 43.7067 28.526C45.1599 29.648 47.1185 34.0113 46.5499 34.6346C46.4235 34.697 43.9594 33.8243 41.1162 32.64C38.2731 31.518 36.2512 30.8946 36.6303 31.3933C37.0726 31.892 38.9681 32.8893 40.9267 33.575C44.844 35.0709 46.234 35.9436 45.7917 36.6916C45.4126 37.2526 42.6326 36.6293 40.4844 35.4449C39.6631 35.0709 38.9049 34.8839 38.7153 35.0709C38.5258 35.2579 39.6631 36.0059 41.3058 36.7539C46.4867 39.2473 49.0771 37.0656 47.4344 31.5803C46.1708 27.404 41.369 25.6587 35.9985 27.3417Z" fill="black"/>
<path d="M31.1967 30.7076C30.944 31.3933 31.0703 32.0166 31.5758 32.3283C32.5235 32.8893 34.798 31.705 34.3558 30.957C34.1662 30.6453 33.724 30.6453 33.3449 30.8323C32.9658 31.0816 32.4603 30.8323 32.1444 30.396C31.7653 29.7103 31.5758 29.7726 31.1967 30.7076Z" fill="black"/>
<path d="M23.994 31.3309C20.9612 32.3282 16.4753 35.4449 14.4535 37.8135C11.2312 41.7405 5.98716 42.8002 2.06989 40.4315C-0.141468 39.1225 -0.710104 39.6212 0.995804 41.3042C3.83898 44.1715 7.56671 44.4208 11.6103 42.0522C13.1899 41.1795 15.0222 39.5589 15.7803 38.5615C16.5385 37.5019 17.5494 36.6915 18.0549 36.6915C18.5603 36.6915 18.9394 36.3175 18.9394 35.8812C18.9394 34.8839 24.5626 31.7049 26.2685 31.7049C27.2162 31.7049 27.1531 31.8919 25.8894 32.7646C20.5821 36.1929 16.7912 41.6782 15.0853 48.0985C14.3903 50.5295 13.3794 52.9605 12.8108 53.3968C11.9262 54.0201 11.8631 54.4565 12.4317 56.0148C13.8849 59.8171 10.2203 68.3567 5.29216 72.8447C2.00671 75.7744 2.25944 76.0237 5.92398 73.5304C10.9153 70.1644 12.9372 67.1724 14.5167 61.1261C14.8958 59.6924 15.2749 58.5081 15.3381 58.5081C15.4012 58.5081 16.9176 59.0691 18.6867 59.6924C28.9853 63.5571 40.0421 65.0531 44.528 63.1831C48.3821 61.6248 48.0662 59.5054 43.6435 57.3238C39.4735 55.2045 38.2099 55.2668 41.6849 57.3861C46.0444 59.9418 46.4235 61.3131 43.138 62.1858C41.8112 62.5598 39.8526 62.8714 38.7153 62.8714C35.1771 62.8714 23.299 60.3781 19.1922 58.6951C15.2749 57.1991 15.2117 57.1368 15.5908 55.2045C16.0962 52.6488 15.9699 52.7111 19.4449 51.8385L22.4144 51.0905L19.3185 51.3398L16.2858 51.6515L16.6649 49.2828C17.8022 43.1742 23.0462 35.3825 27.469 33.3256C28.9221 32.6399 29.4908 32.0166 29.3012 31.3932C28.859 30.2712 26.9635 30.2712 23.994 31.3309Z" fill="black"/>
<path d="M34.7349 34.1359C35.2403 35.1332 35.3667 37.0655 35.0508 40.4938C34.7349 44.0468 34.798 45.7298 35.3667 46.3531C36.3144 47.4751 38.273 47.5998 38.9049 46.5401C39.1576 46.1661 39.0944 46.0415 38.7153 46.2285C37.4517 47.0388 36.7567 45.0441 36.5039 39.9952C36.3776 36.0058 36.0617 34.6345 35.1139 33.7619C33.9767 32.7022 33.9767 32.7022 34.7349 34.1359Z" fill="black"/>
<path d="M75.2975 36.1929C75.6766 37.6889 76.498 39.9952 77.1298 41.3665L78.3934 43.8599L78.0143 40.4939C77.6353 37.1279 76.2453 33.5749 75.2343 33.5749C74.9816 33.5749 74.9816 34.7592 75.2975 36.1929Z" fill="black"/>
<path d="M78.7725 34.4477C78.2039 35.819 78.8989 39.8083 79.6571 39.8083C80.2889 39.8083 80.2889 37.9384 79.6571 35.1334C79.278 33.575 79.1516 33.4504 78.7725 34.4477Z" fill="black"/>
<path d="M64.3039 35.1332C63.293 35.6942 62.5348 36.6292 62.5348 37.1902C62.5348 37.8136 62.1557 38.6862 61.7766 39.1226C61.0816 39.7459 61.2712 40.1199 62.4716 41.1172C63.293 41.7405 64.6198 42.3015 65.378 42.3015C66.1994 42.3015 68.3475 42.9872 70.243 43.8599C72.0753 44.7325 74.2234 45.4182 74.9816 45.4182C75.9925 45.4182 76.2453 45.7299 75.9925 46.6025C75.5503 48.4102 77.0034 48.8465 78.5198 47.4129L79.7834 46.1039L78.4566 46.4779C77.6353 46.6649 77.0034 46.5402 77.0034 46.1039C76.9403 45.7299 76.8771 45.0442 76.8139 44.6702C76.8139 44.2339 75.9925 43.8599 75.0448 43.7352C74.1603 43.6729 72.4544 43.1119 71.2539 42.5509C70.1166 41.9275 67.7789 41.2419 66.0098 41.0549C63.7985 40.8679 62.8507 40.4939 62.8507 39.8082C62.8507 37.8759 66.8312 38.3122 70.938 40.7432L74.8553 42.9872L72.5175 40.8056C70.1166 38.5616 65.9466 37.0032 64.1775 37.6889C62.2821 38.3746 63.1666 36.8786 65.0621 36.0682C67.5894 35.0086 69.9903 36.0059 73.7812 39.7459L76.6875 42.6132L75.108 39.8706C72.4544 35.0709 67.9053 33.1386 64.3039 35.1332Z" fill="black"/>
<path d="M30.3121 38.998C29.933 41.3666 29.1748 44.6079 28.6694 46.2909C28.2271 47.9739 27.7849 50.2179 27.848 51.2776C27.9744 54.5812 30.9439 44.5456 31.3862 39.372C31.5758 36.8786 31.5758 34.8217 31.3862 34.8217C31.2598 34.8217 30.7544 36.6916 30.3121 38.998Z" fill="black"/>
<path d="M34.1662 36.6915C34.103 36.8785 33.2817 39.9328 32.2076 43.5481C30.3121 50.1555 29.933 53.3968 30.944 55.7031C31.3862 56.7004 31.5126 56.4511 31.5126 54.5811C31.5758 53.2721 32.334 49.0335 33.2185 45.0441C34.103 41.1172 34.6717 37.5642 34.5453 37.1278C34.3558 36.7538 34.1662 36.5045 34.1662 36.6915Z" fill="black"/>
<path d="M83.5112 39.8083C80.7312 41.7406 78.7094 44.4833 80.5416 43.7976C81.0471 43.5483 81.4894 43.1743 81.4894 42.8626C81.4894 42.1146 86.7966 39.185 88.1866 39.185C89.1975 39.185 89.008 39.559 87.1757 41.242C85.9753 42.3016 84.2694 43.7353 83.3848 44.2963L81.8053 45.4183L83.6375 44.7326C87.9971 43.2366 90.5875 40.7433 89.8925 38.6863C89.3871 37.315 86.1648 37.876 83.5112 39.8083Z" fill="black"/>
<path d="M89.7662 42.9872C89.703 45.1688 88.7553 45.7922 84.838 46.3532C80.3521 46.9142 79.973 47.9115 84.143 47.9115C89.0712 47.9115 91.5353 45.7922 90.2716 42.6132C89.8294 41.4912 89.7662 41.5535 89.7662 42.9872Z" fill="black"/>
<path d="M69.6112 51.4645C64.5566 56.2641 63.293 59.5055 62.9139 68.6684C62.7244 73.7174 62.598 74.2784 60.7025 76.5847C58.4912 79.265 58.5544 79.639 60.9553 78.0807C63.8616 76.2107 64.6198 74.1537 65.1253 67.1724C65.6307 59.6301 67.0839 56.0148 71.5066 51.2775C74.9184 47.5999 73.5916 47.7869 69.6112 51.4645Z" fill="black"/>
<path d="M78.583 50.1556C79.278 51.8386 80.7312 58.2589 81.2998 61.9366L81.7421 65.0532L82.1212 61.9989L82.4371 58.9446L83.3216 61.8119C84.6485 66.4245 85.2171 65.8012 84.2062 60.8146C83.7639 58.3836 83.1953 54.9553 82.9425 53.3346C82.4371 49.3453 81.4894 48.9713 81.4262 52.7113V55.7033L80.4785 52.7736C79.973 51.153 79.2148 49.657 78.8357 49.4076C78.3303 49.096 78.2671 49.3453 78.583 50.1556ZM81.9316 58.0096C81.7421 58.5083 81.5525 58.3213 81.5525 57.6356C81.4894 56.9499 81.6789 56.5759 81.8685 56.8253C82.058 57.0123 82.1212 57.5733 81.9316 58.0096Z" fill="black"/>
<path d="M83.7007 50.2178C83.9535 50.8411 84.5853 52.5241 85.0907 53.8955C86.4175 57.8224 88.313 59.1938 92.6725 59.5678C95.5157 59.7548 96.8425 59.5678 98.5484 58.6328C101.392 57.0744 101.834 54.7681 99.4962 53.2721C97.9166 52.2748 97.9166 52.2748 98.6116 53.3968C99.7489 55.2045 98.9275 56.4511 96.2107 57.1991C90.5244 58.7574 88.1866 57.7601 86.1016 52.8981C85.1539 50.8411 84.143 49.1582 83.8271 49.1582C83.5112 49.1582 83.448 49.6568 83.7007 50.2178Z" fill="black"/>
<path d="M73.9707 62.9961C72.1385 64.1181 70.1167 65.8011 69.548 66.7985C68.6635 68.3568 68.6635 68.6685 69.4848 70.2268C70.8117 72.5331 73.9707 73.5304 78.7094 73.1564C87.5548 72.4084 100.191 66.0505 99.6857 62.6222C99.4962 61.5002 99.0539 61.3132 96.3371 61.2508C93.3044 61.1262 93.3044 61.1262 95.7053 61.5625C100.57 62.3105 99.1803 64.4298 91.0298 68.4815C80.9207 73.4681 68.158 72.9071 70.6221 67.5465C71.3803 65.9258 76.1189 62.2482 77.5089 62.2482C77.9512 62.2482 78.3303 61.9365 78.3303 61.6248C78.3303 60.6275 77.5089 60.8768 73.9707 62.9961Z" fill="black"/>
<path d="M91.4721 62.0612C91.9144 62.2482 92.483 62.1858 92.6725 61.9988C92.9253 61.8118 92.5462 61.6248 91.8512 61.6872C91.1562 61.6872 90.9666 61.8742 91.4721 62.0612Z" fill="black"/>
</svg>
