<svg width="90" height="96" viewBox="0 0 90 96" fill="none" xmlns="http://www.w3.org/2000/svg">
<path d="M35.5935 3.18381C39.2998 8.15053 43.4535 12.8626 43.4535 12.1621C43.4535 11.7801 42.4311 10.5702 41.2808 9.48773C40.0667 8.40524 38.8525 6.74966 38.6608 5.79453C38.2774 3.94792 35.0184 1.62125e-05 33.8681 1.62125e-05C33.5486 1.62125e-05 34.3155 1.46456 35.5935 3.18381Z" fill="black"/>
<path d="M29.3951 1.84659C28.5004 2.48335 26.7112 3.37482 25.4331 3.75687C24.1551 4.2026 22.7492 4.96671 22.3019 5.5398C21.8546 6.04921 19.9375 7.45008 18.0843 8.65992C16.1673 9.86976 14.5058 11.2706 14.3141 11.78C14.1224 12.2894 12.5248 13.6903 10.7995 14.9638C9.07412 16.1737 7.66827 17.4472 7.66827 17.8293C7.66827 18.7207 13.4195 14.6455 15.5283 12.2894C16.5507 11.1433 17.7009 10.1881 18.1483 10.1881C18.5956 10.1881 19.8736 9.16933 21.0878 7.95948C22.238 6.74964 24.6663 5.09407 26.4556 4.2026C29.9702 2.54703 32.6541 0.700428 31.6316 0.700428C31.3121 0.700428 30.2897 1.20984 29.3951 1.84659Z" fill="black"/>
<path d="M75.2769 8.59611C75.0851 8.78714 71.4427 9.10552 67.0974 9.29654C62.113 9.48757 58.5344 9.99698 57.4481 10.5701C56.4257 11.0795 55.0837 11.4615 54.3169 11.4615C53.614 11.4615 53.0388 11.7162 53.0388 12.0983C53.0388 13.0534 54.7003 12.8624 57.3842 11.7162C58.6623 11.1431 61.2183 10.5701 62.9437 10.5064C72.2095 10.188 82.4339 9.29654 82.4339 8.78714C82.4339 8.21405 75.852 8.02302 75.2769 8.59611Z" fill="black"/>
<path d="M83.9037 11.5889C84.7345 17.1287 85.693 21.7133 86.2681 23.0505C86.8432 24.3877 86.9071 24.3241 86.6515 22.6048C86.4598 21.5223 85.9486 18.2112 85.5652 15.091C85.1179 12.0346 84.4788 9.55124 84.1593 9.55124C83.8398 9.55124 83.712 10.5064 83.9037 11.5889Z" fill="black"/>
<path d="M46.0096 12.7351C45.3067 13.1809 45.8818 13.3719 48.1184 13.3719C49.7799 13.3719 51.1218 13.0535 51.1218 12.7351C51.1218 11.9073 47.2877 11.9073 46.0096 12.7351Z" fill="black"/>
<path d="M50.8023 17.8292C49.7798 20.6309 49.5881 22.7959 49.7159 28.9725C49.8437 37.505 51.3774 55.2069 52.0164 55.8437C52.5276 56.3531 52.4637 47.1838 51.8247 35.6584C51.5052 30.5007 51.5691 24.3241 51.8886 21.7134C52.7194 14.9638 52.3359 13.5629 50.8023 17.8292Z" fill="black"/>
<path d="M43.7091 17.8291C43.9008 19.421 44.2203 23.5599 44.412 27.0621C45.1149 38.7148 46.5847 52.9145 47.2237 53.997C48.1823 55.5889 48.1183 52.0868 46.9681 38.8422C45.5623 22.6048 44.7315 16.3009 44.0286 15.6004C43.5813 15.1547 43.4535 15.8551 43.7091 17.8291Z" fill="black"/>
<path d="M3.13122 20.6945C2.17269 21.204 1.27806 22.0317 1.08635 22.5411C0.830739 23.2416 1.27806 23.1142 2.93952 22.1591C6.45414 20.1215 6.64585 18.7843 3.13122 20.6945Z" fill="black"/>
<path d="M7.66827 21.3313C7.66827 22.2865 9.20193 24.6425 11.1829 26.7438C12.3331 27.9536 15.72 32.6656 18.7234 37.2503C23.7717 44.9551 29.5229 51.6411 30.3536 50.8133C30.5453 50.6223 29.0116 48.6483 26.9668 46.356C24.9219 44.1273 21.1517 38.9696 18.6595 34.958C14.7614 28.8451 7.66827 19.9941 7.66827 21.3313Z" fill="black"/>
<path d="M0 25.4703C0 27.0622 2.6839 31.1375 4.72877 32.8567C6.00682 33.8755 8.1795 36.6773 9.52145 39.1606C12.397 44.3184 14.9531 47.0564 19.5541 49.9855C21.3434 51.1317 23.7717 53.2967 24.9858 54.7612C29.2034 59.9826 31.8873 62.7207 32.3346 62.2113C32.5902 61.9566 31.9512 60.9378 30.9287 59.919C29.9063 58.9002 27.9253 56.6715 26.5195 54.8886C25.1136 53.1693 22.3019 50.4949 20.3209 49.0304C15.72 45.6556 13.2278 42.9175 11.119 38.6512C10.1605 36.8046 7.85999 33.8118 5.94292 31.9016C4.02585 29.9913 2.04487 27.6353 1.53366 26.6165C0.575121 24.7699 0 24.3241 0 25.4703Z" fill="black"/>
<path d="M86.7154 29.0362C86.4598 29.8003 86.5237 31.1375 86.9071 32.0927C87.2266 33.0478 87.5462 36.4226 87.5462 39.5427C87.5462 46.4834 88.7603 57.372 89.6549 58.2635C90.0383 58.7092 90.1022 57.372 89.8466 54.4429C89.6549 51.9595 89.1437 46.2287 88.8242 41.7077C88.0574 31.3285 87.3544 27.1259 86.7154 29.0362Z" fill="black"/>
<path d="M34.0599 47.7568C31.9511 48.5846 32.2706 48.7756 35.1462 48.5209C37.5106 48.2662 37.9579 48.5209 41.3447 51.8321C43.3257 53.806 45.115 55.2706 45.2428 55.0796C45.8179 54.5065 40.7057 49.094 38.7247 48.1389C36.2964 46.9927 36.0408 46.9927 34.0599 47.7568Z" fill="black"/>
<path d="M31.2482 50.6223C30.6092 53.2967 33.4848 59.7917 35.7214 60.8741L37.255 61.6383L35.274 62.6571C32.7819 63.9306 30.8648 66.414 29.9063 69.4704C29.4589 71.0623 27.9253 73.2273 25.7526 75.3286C23.8355 77.1115 21.7268 79.6585 21.0877 80.9321C19.8736 83.1607 18.6594 89.783 19.3624 89.783C19.618 89.783 20.3848 87.7454 21.0877 85.3257C22.1741 81.6325 23.0687 80.168 26.1999 76.8568C28.6921 74.1824 30.4175 71.6354 31.3121 69.2157C32.5262 66.0956 35.5297 62.4024 36.9994 62.4024C37.255 62.4024 39.1082 61.5109 41.1531 60.4284L44.8594 58.4545L41.4087 56.8626C38.597 55.6527 37.6384 55.4617 36.2326 55.9711C35.274 56.3532 34.5072 57.1173 34.5072 57.754C34.4433 59.7917 33.0375 56.7352 32.2706 52.851C31.8233 50.686 31.4399 49.8582 31.2482 50.6223Z" fill="black"/>
<path d="M40.6418 54.4429C41.6003 55.3344 42.495 56.0348 42.6867 56.0348C42.8784 56.0348 42.3672 55.3344 41.5364 54.4429C40.7057 53.5514 39.8111 52.851 39.4916 52.851C39.172 52.851 39.6833 53.5514 40.6418 54.4429Z" fill="black"/>
<path d="M46.1374 57.6266C45.115 59.8553 45.115 59.9826 47.1598 59.7279C48.5018 59.6006 48.9491 59.1548 49.013 57.945L49.2047 56.3531L48.4379 57.754C47.4793 59.7279 46.5208 59.6006 47.032 57.6266C47.5432 55.589 47.032 55.589 46.1374 57.6266Z" fill="black"/>
<path d="M50.4828 57.181C50.4828 58.1998 52.2721 58.5818 56.7452 58.5181L61.0267 58.3908L56.5535 58.0087C54.0613 57.754 51.6969 57.372 51.2496 57.0536C50.8662 56.7989 50.4828 56.8626 50.4828 57.181Z" fill="black"/>
<path d="M18.7873 60.4284C17.637 61.1289 15.3365 61.8293 13.6751 62.084C8.11558 62.7844 7.60436 62.9755 6.70973 65.0768C5.36778 68.3242 6.90144 70.935 10.6078 71.6354C12.1414 71.8901 13.0361 72.4632 13.4195 73.6093C14.6975 76.9842 21.4073 74.4371 27.1585 68.3879C29.2672 66.1593 30.8648 64.3127 30.6731 64.3127C29.7785 64.3127 26.5833 66.9234 24.5385 69.3431C22.238 71.9538 18.2121 74.5008 16.2951 74.5008C15.7839 74.5008 15.017 73.8004 14.6975 72.9726C14.378 72.0174 13.2917 71.1897 11.6941 70.6803C8.49899 69.5978 7.66826 68.8973 7.66826 67.1144C7.66826 64.8221 9.32972 63.6759 12.6526 63.6759C14.6975 63.6759 16.5507 63.1665 18.5317 62.0203C20.1292 61.1289 22.6853 60.1101 24.2829 59.8553L27.1585 59.3459L23.9634 59.2823C21.8546 59.2186 20.1292 59.6006 18.7873 60.4284Z" fill="black"/>
<path d="M50.4189 60.11C51.2496 61.0652 57.4481 62.6571 58.0233 62.084C58.4706 61.6382 55.1477 60.4921 53.3584 60.4921C52.5277 60.4921 51.633 60.1737 51.4413 59.8553C51.2496 59.4733 50.7384 59.2186 50.355 59.2186C49.9077 59.2186 49.9716 59.5369 50.4189 60.11Z" fill="black"/>
<path d="M42.4311 61.3835C42.2394 61.8929 41.7282 62.2113 41.2809 62.0203C40.8336 61.8292 39.939 62.3386 39.2999 63.0391C38.3414 64.1216 37.958 65.7135 37.7024 70.2981C37.3829 75.7106 37.2551 76.3473 35.2741 78.767C32.718 82.0145 31.3121 85.8351 31.3121 89.783C31.3121 94.0493 29.9063 95.1954 25.1775 94.6223C20.96 94.1129 20.96 95.1954 25.1775 95.8322C30.098 96.5963 31.6956 94.877 32.6541 88.0637C33.0375 85.1983 33.8682 83.0333 35.1463 81.123C38.2136 76.5384 38.4692 75.8379 38.9804 69.9161C39.2999 65.8408 39.7473 63.9305 40.5141 63.1664C41.6004 62.1476 41.6004 62.275 41.217 65.013C40.9614 66.6686 41.0892 69.5977 41.5365 71.699C42.2394 75.1375 42.7507 75.9016 47.096 80.2316C50.1633 83.288 52.5277 86.3445 53.678 88.7005C55.9145 93.3488 56.6814 94.2403 58.4706 94.2403C59.8126 94.2403 61.9853 92.4574 61.9853 91.3749C61.9853 91.1202 62.6882 89.9103 63.6467 88.7005C64.5414 87.5543 64.9887 86.5992 64.7331 86.5992C63.7106 86.5992 62.816 87.5543 61.0906 90.2924C58.5984 94.304 57.0648 93.8582 55.0199 88.5731C53.8058 85.262 52.6555 83.6701 49.0131 80.2952C46.5848 78.0029 44.0287 74.9465 43.3897 73.5456C42.1116 70.7439 41.7921 64.7583 42.8146 62.1476C43.1341 61.2561 43.2619 60.492 43.0702 60.492C42.9424 60.492 42.6229 60.8741 42.4311 61.3835Z" fill="black"/>
<path d="M62.4325 63.3575C61.7296 68.0058 61.1545 68.7699 59.3013 67.0507C58.4706 66.3503 56.3618 65.0131 54.5086 64.0579C52.7193 63.1665 51.0579 62.1477 50.8023 61.7656C50.355 61.0015 49.2047 60.9378 49.2047 61.6382C49.2047 62.9754 53.5501 67.5601 55.9784 68.8973C58.3428 70.1071 58.9179 70.2345 60.2598 69.4704C61.1545 69.0247 62.1769 67.9422 62.5603 67.1144C63.1993 65.7135 63.6466 65.5225 66.9057 65.5862C72.4652 65.7135 78.0886 65.2041 80.0695 64.3763C81.092 63.9943 83.1369 63.6759 84.6705 63.6759C86.2042 63.6759 87.6739 63.3575 87.8656 63.0391C88.4407 62.084 83.2008 62.275 79.6222 63.3575C77.8969 63.8669 75.7242 64.3126 74.8295 64.249C73.9349 64.249 70.9315 64.44 68.2476 64.6947L63.3271 65.1404L63.1354 62.6571L62.9437 60.1737L62.4325 63.3575Z" fill="black"/>
<path d="M24.9219 62.4661C22.1102 63.6123 16.5507 67.5602 16.8063 68.3243C17.2536 69.7252 18.276 69.3431 21.0877 66.7961C22.6853 65.3952 24.7302 63.8033 25.7526 63.2939C28.5004 61.8293 27.9892 61.2563 24.9219 62.4661Z" fill="black"/>
<path d="M27.4779 63.9943C26.775 64.822 26.8389 64.8857 27.7336 64.5673C28.3087 64.3763 28.756 63.9306 28.756 63.6122C28.756 62.7844 28.3726 62.9118 27.4779 63.9943Z" fill="black"/>
<path d="M44.7316 63.9941C44.7316 66.0954 46.6487 69.4703 50.0355 73.0998C51.9525 75.2011 53.7418 77.4934 53.9974 78.3212C54.253 79.0853 54.5725 79.5311 54.7003 79.4037C55.4033 78.7033 52.8472 74.1186 49.9077 70.9348C48.1823 69.0245 46.5847 66.6685 46.3291 65.586C45.8818 63.4847 44.7316 62.3386 44.7316 63.9941Z" fill="black"/>
<path d="M35.8491 65.2677C35.1462 66.1592 34.1238 68.9609 33.5486 71.508C32.9735 74.055 31.9511 77.2388 31.2482 78.576C30.0979 80.741 30.0979 80.9957 31.0565 80.1679C32.5262 78.9581 34.2516 74.8828 34.8267 71.3169C35.0823 69.725 35.8491 67.369 36.4882 66.0318C37.9579 63.2938 37.7023 62.9754 35.8491 65.2677Z" fill="black"/>
<path d="M47.3515 64.3126C47.3515 64.822 47.6071 65.7135 47.9266 66.2229C48.6935 67.3691 48.6935 66.3503 47.9266 64.631C47.5432 63.8032 47.3515 63.6759 47.3515 64.3126Z" fill="black"/>
<path d="M52.2082 69.2793C52.9111 70.4891 55.9784 73.0362 59.493 75.3285C62.816 77.4935 66.1389 80.2315 66.9057 81.4414C67.8003 82.7786 68.3755 83.2243 68.3755 82.5876C68.3755 80.8046 64.2218 76.793 59.6208 74.1823C57.2565 72.7815 54.317 70.6802 53.1028 69.4066L50.9301 67.178L52.2082 69.2793Z" fill="black"/>
<path d="M21.387 23.8366C21.6415 24.1599 21.7698 24.4377 21.8734 24.7528C22.001 25.1213 22.0137 25.1833 22.282 24.9737C22.7514 24.6068 22.9704 23.9675 23.0313 23.3797C23.0434 23.2803 23.0442 23.1896 23.0762 23.0926C23.1033 23.0354 23.1369 23.0092 23.1816 22.9743C23.2774 22.9354 23.3635 22.9761 23.3739 23.058C23.3855 23.7151 23.0994 24.6589 22.574 25.0695C22.4623 25.1568 22.3018 25.2282 22.1725 25.2933C22.1166 25.337 22.0695 25.3918 22.091 25.465C22.1101 25.5581 22.1292 25.6512 22.1371 25.753C22.2406 26.3203 22.2244 26.8731 22.0861 27.4313L22.0629 27.5395C21.9965 27.7534 21.9063 27.9139 21.7722 28.0188C21.571 28.176 21.2756 28.1908 20.9509 28.0305C20.7299 27.9331 20.5695 27.7524 20.4627 27.5478C20.1636 27.0073 19.9159 25.9586 20.0128 25.3247C20.0335 25.2365 20.0009 25.172 19.937 25.1138C19.8381 25.0111 19.7392 24.9084 19.6626 24.7881C19.5207 24.539 19.4809 24.282 19.4946 24.0012C19.521 23.7825 19.6361 23.5846 19.8149 23.4448C20.2173 23.1303 20.7975 23.2711 21.1541 23.5865C21.253 23.6893 21.3519 23.792 21.387 23.8366ZM21.696 25.2155C21.626 24.8742 21.5088 24.5877 21.3453 24.2653C21.177 23.9827 20.9529 23.7438 20.6481 23.5859C20.4207 23.4575 20.2187 23.4533 20.0734 23.5669C19.9728 23.6455 19.9161 23.7798 19.8833 23.9675C19.8656 24.1974 19.9102 24.4146 19.9971 24.6168C20.0274 24.7011 20.0849 24.7282 20.1408 24.6846L20.1767 24.6385C20.2126 24.5924 20.2462 24.5662 20.2909 24.5312C20.3915 24.4526 20.5184 24.4074 20.6692 24.4156C20.84 24.4261 20.8951 24.4731 20.9046 24.6458L20.8957 24.8868C20.8763 25.298 20.9114 25.3426 21.3201 25.3113C21.4534 25.2971 21.5755 25.2917 21.696 25.2155ZM21.4004 27.6611C21.4857 27.7925 21.532 27.8284 21.5943 27.8157C21.6054 27.807 21.6254 27.8094 21.6366 27.8006C21.6813 27.7657 21.6973 27.7172 21.7244 27.66L21.7884 27.466C21.9962 26.8354 21.9709 26.207 21.8236 25.584C21.7957 25.4797 21.7494 25.4439 21.6448 25.4716C21.4269 25.5159 21.2226 25.5315 21.0119 25.5161C20.9608 25.52 20.9297 25.5264 20.9073 25.5438C20.8515 25.5875 20.8888 25.8644 20.9016 25.9264C20.9787 26.4603 21.0982 26.9791 21.3111 27.4789C21.3414 27.5632 21.3741 27.6277 21.4004 27.6611ZM27.1444 19.8772C27.2067 19.8646 27.2617 19.9116 27.2808 20.0046C27.3063 20.1288 27.3318 20.2529 27.3373 20.3746L27.4707 21.7827C27.5137 22.1813 27.5395 23.2234 27.3717 23.6066C27.3398 23.7036 27.2791 23.787 27.212 23.8394C26.9773 24.0229 26.6365 23.9111 26.4227 23.7541C26.0461 23.4362 25.7478 23.0572 25.5142 22.6457C25.1848 22.0208 24.9712 21.3595 24.8 20.6832C24.7569 20.5368 24.7139 20.3903 24.6597 20.2527C24.5295 20.4084 24.5269 20.9326 24.5252 21.114C24.5185 21.8394 24.5317 22.5672 24.5338 23.3038C24.5424 23.5671 24.5423 23.8193 24.4999 24.0865C24.4671 24.2742 24.4103 24.4086 24.2539 24.5309C24.1333 24.6071 23.9465 24.645 23.8117 24.5884C23.34 24.4708 22.8934 23.8116 22.9822 23.3281C23.015 23.1404 23.1141 22.991 23.2482 22.8862C23.3153 22.8338 23.3712 22.7901 23.4558 22.76C23.518 22.7473 23.5915 22.7259 23.6553 22.7841C23.6992 22.8398 23.6919 22.8995 23.6648 22.9567C23.5465 23.2652 23.5791 23.5818 23.6939 23.8882C23.7545 24.0569 23.8262 24.2169 23.9738 24.3356C24.0289 24.3826 24.0887 24.3898 24.1223 24.3636C24.1446 24.3462 24.1781 24.32 24.1829 24.2802C24.2261 24.1745 24.2605 24.0576 24.2637 23.947C24.279 23.737 24.2855 23.5159 24.2808 23.3035L24.2227 21.1883C24.2125 20.8542 24.2422 20.525 24.3006 20.2092C24.3126 20.1098 24.3334 20.0216 24.3741 19.9357C24.3973 19.8276 24.4468 19.7528 24.5139 19.7004C24.5698 19.6568 24.6233 19.633 24.7055 19.6227C24.9298 19.6095 25.1045 19.671 25.2114 19.8755C25.3661 20.1867 25.4585 20.5106 25.5709 20.8369C25.7502 21.3629 25.9271 21.9088 26.1376 22.4285C26.2787 22.7683 26.4334 23.0796 26.6703 23.3805C26.758 23.492 26.8497 23.6544 26.9942 23.6315C27.0142 23.6339 27.0365 23.6165 27.0477 23.6077C27.1371 23.5378 27.1364 23.3764 27.1396 23.2658C27.2726 22.3337 27.1597 21.3416 27.0396 20.4092C27.0117 20.305 26.968 19.9971 27.0686 19.9185C27.0909 19.901 27.1133 19.8835 27.1444 19.8772ZM27.6824 19.9969C27.7381 20.4575 27.9255 20.8332 28.1552 21.1938C28.2644 21.3785 28.432 21.4996 28.6219 21.6033C28.9043 21.7786 29.2252 21.6359 29.46 21.4524C30.2312 20.8497 30.3736 18.4158 30.4219 17.5138C30.4403 17.4454 30.4387 17.3746 30.4571 17.3062C30.4707 17.2776 30.4931 17.2601 30.5043 17.2514C30.5601 17.2077 30.6224 17.1951 30.6711 17.211C30.7397 17.2294 30.7636 17.2828 30.7564 17.3424C30.7595 17.484 30.7738 17.6169 30.7658 17.7672C30.7145 18.2754 30.6608 18.8035 30.6007 19.3006C30.5165 19.9965 30.2303 21.1925 29.649 21.6467C28.956 22.1884 28.0023 22.1235 27.4408 21.4101C27.0874 20.984 26.928 20.4604 26.8931 19.9115C26.8751 19.2234 26.9209 18.5935 27.4295 18.07C27.4655 18.0239 27.5102 17.9889 27.5549 17.954C27.7896 17.7705 28.2478 17.6645 28.4584 17.9321C28.5461 18.0435 28.6051 18.1415 28.6394 18.2767C28.7238 18.7509 28.7346 19.4987 28.3098 19.8306C28.1981 19.918 28.0711 19.9631 27.9267 19.986C27.8644 19.9987 27.7846 19.989 27.6824 19.9969ZM27.9467 18.0619C27.5667 18.3589 27.5416 19.1527 27.602 19.5736C27.6378 19.7796 27.8477 19.8857 28.0417 19.7881C28.1199 19.727 28.1782 19.6634 28.2277 19.5887C28.4674 19.1133 28.454 18.6376 28.2587 18.1601C28.2524 18.1291 28.2436 18.1179 28.226 18.0956C28.1471 17.9953 28.0585 17.9745 27.9467 18.0619ZM32.086 19.2021C31.9105 18.9791 31.8221 18.7061 31.7647 18.4269C31.721 18.119 31.7171 17.8159 31.7444 17.5065C31.7845 17.007 31.8446 16.5099 31.8959 16.0017C31.908 15.9023 31.9112 15.7917 31.9144 15.6812C31.9129 15.6104 31.9249 15.511 31.8563 15.4926C31.8275 15.479 31.7964 15.4853 31.7741 15.5028C31.7405 15.529 31.7221 15.5974 31.6974 15.6348C31.4649 16.0505 31.2812 16.4822 31.0774 16.9115C31.0183 17.0657 30.9504 17.2088 30.8538 17.3383C30.8402 17.3669 30.8067 17.3932 30.7843 17.4106C30.6502 17.5155 30.4858 17.5359 30.3421 17.4681C30.1985 17.4003 30.118 17.2292 30.1396 17.0503C30.142 17.0304 30.1444 17.0105 30.158 16.9819C30.2139 16.9382 30.2785 16.9057 30.3312 16.9726C30.3814 17.0593 30.4117 17.1437 30.4532 17.2193C30.4946 17.2949 30.5856 17.2958 30.6327 17.241L31.2846 15.8673C31.3574 15.6844 31.5363 15.2925 31.6928 15.1702C31.9164 14.9955 32.2268 15.0229 32.4111 15.257C32.5451 15.4044 32.5921 15.6017 32.6079 15.8054C32.6469 16.153 32.6435 16.5157 32.6114 16.8649C32.5945 17.2562 32.5552 17.6651 32.5782 18.0612C32.5868 18.3245 32.6266 18.5815 32.6776 18.8297C32.7142 18.9451 32.7621 19.0518 32.8099 19.1584C32.845 19.203 32.9136 19.2214 32.9695 19.1777C33.629 18.6623 33.819 16.8394 33.8728 16.0591C33.8874 15.6877 33.8931 15.3051 33.8989 14.9225C33.8997 14.8318 33.9142 14.7125 33.9262 14.6131C33.931 14.5733 33.9533 14.5558 33.9757 14.5384C33.9981 14.5209 34.0204 14.5034 34.0515 14.4971C34.1138 14.4845 34.1824 14.5028 34.1952 14.5649C34.2055 14.6468 34.2158 14.7288 34.215 14.8195C34.1724 15.591 34.1696 16.3674 34.0559 17.1404C33.9503 17.7631 33.6616 18.979 33.1362 19.3895C32.9686 19.5206 32.7706 19.5672 32.5336 19.5184C32.3365 19.4744 32.1977 19.3669 32.086 19.2021Z" fill="black"/>
<path d="M59.088 24.7979C58.4827 25.0375 57.5496 26.0589 57.1208 26.5255L56.4903 27.2316C56.339 27.3956 56.0742 27.6351 55.8346 27.6351C55.6454 27.6351 55.4689 27.509 55.3932 27.2695C55.3554 27.1686 55.3302 27.0551 55.3554 26.929C55.4689 25.9958 56.566 24.7222 57.537 24.7222C57.8648 24.7222 58.0792 24.7979 58.3062 25.0249L58.6845 24.7601C58.8484 24.6466 59.0249 24.5457 59.2141 24.47C59.2519 24.4448 59.3024 24.4448 59.3528 24.4448C59.5419 24.4448 59.7059 24.5961 59.6807 24.8231C59.6302 25.2266 59.4158 25.6049 59.2141 25.9454C58.8988 26.4876 58.3314 27.4586 58.2936 28.1017C58.2936 28.1774 58.3314 28.2278 58.3944 28.2278C58.407 28.2278 58.4197 28.2152 58.4323 28.2152C58.5836 28.1774 58.7097 28.1143 58.8358 28.0387C59.5672 27.5343 60.1851 26.8155 60.7399 26.1219C60.8408 25.9958 60.9417 25.8697 61.0552 25.7436C61.093 25.6932 61.156 25.6428 61.2065 25.6175C61.2191 25.6049 61.2317 25.6049 61.2317 25.6049C61.2947 25.6049 61.3326 25.6932 61.3326 25.7436L61.2947 25.7941C60.8534 26.3615 60.3994 26.929 59.895 27.4586C59.5293 27.8495 59.0375 28.2657 58.5331 28.4422C58.4827 28.4674 58.4323 28.4674 58.3818 28.4674C58.0792 28.4674 57.8396 28.19 57.7892 27.9126C57.7261 27.6225 57.7387 27.3325 57.827 27.0425C58.0287 26.3489 58.5331 25.5545 58.9997 25.0123C59.0375 24.9618 59.1006 24.9114 59.088 24.7979ZM55.9229 27.3451C55.9355 27.3577 55.9481 27.3577 55.9607 27.3577C55.9859 27.3577 55.9985 27.3577 56.0111 27.3451C56.1625 27.2442 56.2886 27.1181 56.4147 26.992C56.9317 26.4246 57.4235 25.8445 57.9783 25.3275C58.0035 25.3023 58.0161 25.3023 58.0287 25.2897C58.0792 25.2392 58.0918 25.1888 58.054 25.1131C58.0287 25.0627 57.9909 25.0501 57.9405 25.0501H57.9026C57.2217 25.1888 56.5281 26.1346 56.2255 26.702C56.1246 26.9164 55.9859 27.1181 55.9229 27.3451ZM62.5844 27.446C62.5844 27.0929 62.6853 26.7651 62.7484 26.4246L62.824 26.185C62.8366 26.1472 62.8492 26.0967 62.824 26.0715C62.8114 26.0589 62.7988 26.0589 62.7862 26.0589C62.761 26.0589 62.7357 26.0715 62.7105 26.0841C62.3953 26.3363 62.0674 26.475 61.6513 26.475C61.5882 26.4624 61.5378 26.4624 61.5 26.4624C61.3865 26.4624 61.3739 26.5129 61.2856 26.7146C61.1469 27.0803 60.8695 27.6225 60.592 27.9C60.5416 27.9378 60.4912 27.963 60.4407 27.963C60.3903 27.963 60.3272 27.9378 60.2768 27.9C60.2011 27.8369 60.1759 27.7612 60.2011 27.673C60.2263 27.5973 60.2642 27.5217 60.302 27.446C60.6677 26.6642 60.9451 25.8571 61.2099 25.0375L61.3991 24.4826C61.4369 24.3691 61.5 24.3313 61.5756 24.3313C61.7017 24.3439 61.8026 24.4322 61.8152 24.5331C61.8404 24.697 61.8278 24.8483 61.79 25.0123C61.7143 25.3527 61.6387 25.7058 61.5252 26.0337C61.4495 26.2607 61.4747 26.3363 61.6261 26.3363C61.6639 26.3363 61.7017 26.3363 61.7522 26.3237C62.2061 26.2607 62.6096 25.9328 62.9375 25.6428C63.0258 25.5545 63.0888 25.441 63.1393 25.3275C63.2528 25.0753 63.3789 24.8357 63.5302 24.6087C63.5932 24.4952 63.6689 24.407 63.7698 24.3313C63.8328 24.2935 63.8833 24.2683 63.9463 24.2683C64.0094 24.2683 64.0724 24.2935 64.1228 24.3313C64.2489 24.4196 64.2868 24.5079 64.2363 24.6592C64.1355 24.924 64.022 25.2014 63.9085 25.4662C63.5932 26.1976 63.3789 26.9416 63.2401 27.7234C63.2149 27.8873 63.2023 28.0513 63.2275 28.2278C63.2401 28.2909 63.278 28.3287 63.3284 28.3287C63.3536 28.3287 63.3662 28.3161 63.3915 28.3161C63.9841 28.0513 64.8416 26.8533 65.1947 26.3237C65.3334 26.1219 65.4973 25.9202 65.6613 25.7436C65.7117 25.6932 65.7622 25.6554 65.8252 25.668C65.8756 25.668 65.9009 25.6932 65.9261 25.731C65.9513 25.7562 65.9261 25.7815 65.9135 25.8193C65.9009 25.8319 65.8883 25.8445 65.8756 25.8697C65.4091 26.4624 64.9425 27.0677 64.4633 27.673C64.2489 27.9504 63.7445 28.5052 63.3662 28.5683C62.7484 28.5683 62.5844 27.963 62.5844 27.446ZM66.2065 26.0211C65.9921 26.3741 65.9164 26.7398 65.8786 27.1181C65.8534 27.3073 65.9038 27.4838 65.9795 27.6604C66.0804 27.9378 66.383 28.0135 66.6478 28.0135C67.5179 28.0135 68.9555 26.3868 69.4851 25.7815C69.5355 25.7436 69.5733 25.6932 69.6238 25.6554C69.649 25.6428 69.6742 25.6428 69.6868 25.6428C69.7499 25.6428 69.8003 25.668 69.8255 25.7058C69.8634 25.7562 69.8508 25.8067 69.8129 25.8445C69.7373 25.9454 69.6742 26.0463 69.586 26.1472C69.2707 26.475 68.9428 26.8155 68.6276 27.1307C68.1862 27.5721 67.3288 28.253 66.673 28.253C65.8912 28.253 65.2607 27.6856 65.2607 26.8785C65.2481 26.3868 65.4246 25.9328 65.7021 25.5293C66.0678 25.0375 66.4461 24.6213 67.0892 24.5331C67.1396 24.5205 67.19 24.5205 67.2405 24.5205C67.5053 24.5205 67.8836 24.697 67.8836 24.9996C67.8836 25.1257 67.871 25.2266 67.8206 25.3401C67.6188 25.7184 67.2153 26.248 66.7361 26.248C66.61 26.248 66.4965 26.2102 66.383 26.1472C66.3326 26.1219 66.2821 26.0715 66.2065 26.0211ZM67.4549 24.8105C67.0261 24.8105 66.5722 25.3527 66.383 25.6806C66.2947 25.8445 66.383 26.0337 66.5722 26.0715C66.6604 26.0715 66.7361 26.0589 66.8117 26.0337C67.2405 25.8319 67.4927 25.4914 67.6188 25.0501C67.6314 25.0249 67.6314 25.0123 67.6314 24.987C67.6314 24.8735 67.581 24.8105 67.4549 24.8105ZM74.221 25.6428C74.2715 25.668 74.2841 25.731 74.2463 25.8067C74.1958 25.9076 74.1454 26.0085 74.0823 26.0967L73.4014 27.156C73.2122 27.4586 72.6574 28.2026 72.3295 28.3791C72.2539 28.4296 72.1656 28.4548 72.0899 28.4548C71.8251 28.4548 71.6486 28.19 71.5855 27.963C71.4973 27.5343 71.4973 27.1055 71.5603 26.6894C71.6738 26.0715 71.8882 25.4914 72.1404 24.924C72.1908 24.7979 72.2413 24.6718 72.2791 24.5457C72.1026 24.5835 71.8125 24.9492 71.7116 25.0753C71.3081 25.5797 70.9172 26.0967 70.5137 26.6137C70.375 26.8029 70.2363 26.9794 70.0597 27.1434C69.9336 27.2568 69.8201 27.3199 69.6436 27.3199C69.5175 27.3073 69.3662 27.2316 69.3031 27.1181C69.0383 26.7777 69.0887 26.0715 69.4166 25.7815C69.5427 25.668 69.694 25.6175 69.8454 25.6175C69.921 25.6175 69.9841 25.6175 70.0597 25.6428C70.1102 25.668 70.1732 25.6932 70.1858 25.7689C70.1858 25.8319 70.148 25.8697 70.0976 25.895C69.8454 26.0463 69.694 26.2859 69.6058 26.5633C69.5553 26.7146 69.5175 26.8659 69.5553 27.0299C69.5679 27.0929 69.6058 27.1307 69.6436 27.1307C69.6688 27.1307 69.7066 27.1307 69.7319 27.1055C69.8201 27.0551 69.9084 26.992 69.9715 26.9164C70.0976 26.7777 70.2237 26.6263 70.3371 26.475L71.4594 24.9618C71.636 24.7222 71.8377 24.5079 72.0521 24.3187C72.1152 24.2557 72.1782 24.2052 72.2539 24.1674C72.3295 24.1043 72.4052 24.0791 72.4809 24.0791C72.5439 24.0791 72.5943 24.0917 72.6574 24.1296C72.8213 24.243 72.9096 24.3818 72.8718 24.5835C72.8087 24.8862 72.6952 25.1636 72.5943 25.4536C72.4304 25.9202 72.2539 26.3994 72.1152 26.8785C72.0269 27.1938 71.9638 27.4964 71.9638 27.8369C71.9638 27.963 71.9386 28.1269 72.0521 28.19C72.0647 28.2026 72.0899 28.2026 72.1026 28.2026C72.2034 28.2026 72.2917 28.0891 72.3548 28.0135C72.96 27.4334 73.4266 26.6768 73.8553 25.958C73.8932 25.8697 74.0319 25.6301 74.1454 25.6301C74.1706 25.6301 74.1958 25.6301 74.221 25.6428ZM73.7114 26.475C73.6862 26.1724 73.7745 25.9076 73.9636 25.6806C74.0771 25.5545 74.2158 25.4788 74.3545 25.4788C74.4806 25.4788 74.6067 25.5293 74.7076 25.6301C74.7454 25.6554 74.7707 25.6932 74.7454 25.7436C74.7454 25.7689 74.7076 25.7941 74.6824 25.7941C74.468 25.7941 74.3545 25.9454 74.241 26.1093C74.1275 26.2985 74.0393 26.4876 74.0771 26.7272C74.1023 26.8155 74.1402 26.8659 74.2158 26.8659C74.241 26.8659 74.2536 26.8533 74.2789 26.8533C74.7328 26.7398 75.3633 25.9454 75.6029 25.5923L75.7795 25.3275C75.6534 25.3149 75.5525 25.3023 75.4768 25.2771C74.7581 25.0753 74.7959 23.9026 75.9308 23.7513C75.9686 23.7513 75.9938 23.7386 76.0317 23.7386C76.3847 23.7386 76.8261 23.9782 76.3217 24.8988C76.2965 24.9492 76.2713 25.0123 76.2334 25.0627H76.3343C76.4982 25.0501 76.6622 25.0375 76.8387 25.0375C76.927 25.0375 77.0153 25.0501 77.1035 25.1005C77.2801 25.214 77.3683 25.3527 77.3305 25.5797C77.2296 26.2859 76.6622 26.6263 76.3847 27.5847C76.3595 27.6982 76.3343 27.8117 76.3217 27.9252C76.3091 27.9504 76.3343 27.9882 76.3469 28.0008H76.3721C76.3974 28.0008 76.4226 28.0008 76.4352 27.9882C76.5865 27.9126 76.7126 27.7991 76.8261 27.6856C77.1414 27.3703 77.4062 27.0173 77.671 26.6642L78.2006 25.9328C78.2384 25.8824 78.4402 25.6301 78.5032 25.6301C78.5285 25.6301 78.5537 25.6428 78.5789 25.6554C78.6041 25.668 78.6293 25.7058 78.6167 25.7562C78.6167 25.8445 78.5032 25.9958 78.4528 26.0589C78.0619 26.5759 77.6584 27.0803 77.2548 27.5973C77.0657 27.8243 76.7252 28.2152 76.4226 28.2783C76.3847 28.2909 76.3469 28.2909 76.3091 28.2909C76.0695 28.2909 75.8803 28.0261 75.8551 27.7991C75.7038 26.8407 76.246 26.2228 76.7883 25.504C76.8261 25.4536 76.8765 25.3906 76.8639 25.2897C76.5991 25.2897 76.3595 25.3023 76.0947 25.3149C75.729 25.9076 75.1237 26.8281 74.468 27.0425C74.405 27.0551 74.3419 27.0677 74.2789 27.0677C74.0897 27.0677 73.9258 26.9794 73.8249 26.7903C73.7619 26.702 73.724 26.5885 73.7114 26.475ZM76.1073 23.9908C75.439 24.0287 75.212 24.9618 75.4642 25.0879H75.5399C75.6281 25.0879 75.7795 25.0879 75.9308 25.0753C76.0947 24.7853 76.2334 24.4952 76.2586 24.1548V24.1043C76.2586 24.0161 76.1956 23.9908 76.1073 23.9908Z" fill="black"/>
</svg>
