<svg width="101" height="100" viewBox="0 0 101 100" fill="none" xmlns="http://www.w3.org/2000/svg">
<path d="M24.9674 0.547686C24.1641 1.30797 24.2371 1.52519 25.077 0.982134C26.1359 0.330462 28.546 1.48899 28.2173 2.4665C28.1078 2.86474 28.2538 3.33539 28.619 3.62502C29.1667 4.05947 29.2032 3.98706 28.9476 2.86474C28.619 1.27177 28.4729 1.05454 27.8887 1.05454C27.5966 1.05454 27.1949 0.801114 26.9393 0.511482C26.355 -0.176394 25.6612 -0.176394 24.9674 0.547686Z" fill="black"/>
<path d="M22.3748 2.17691C21.9731 2.79238 22.3018 2.82858 23.0686 2.28552C23.6894 1.85107 23.6894 1.77866 23.2147 1.77866C22.886 1.77866 22.4844 1.95968 22.3748 2.17691Z" fill="black"/>
<path d="M25.4786 2.14064C24.7848 2.28545 24.5292 2.43027 24.9674 2.46647C25.9898 2.50267 27.2679 3.55259 26.6471 3.84222C26.282 3.98704 26.282 4.13186 26.6471 4.56631C27.3409 5.39899 26.0994 6.23169 24.9309 5.68863C24.2371 5.36279 23.7989 5.4714 22.6669 6.15928C21.9001 6.62993 21.1698 6.99197 21.0237 6.95576C20.8777 6.88335 20.8411 7.39021 20.9507 8.04189C21.1333 9.12801 21.1333 9.16421 20.5855 8.51254C20.2569 8.1143 20.0013 7.57124 20.0013 7.31781C20.0013 7.06438 19.8552 6.84715 19.6361 6.84715C19.4535 6.84715 19.271 7.2454 19.271 7.75225C19.271 8.44012 19.5996 8.80217 20.6586 9.30902C21.8271 9.85209 22.1557 9.88829 23.0321 9.45384C23.5798 9.20042 24.018 8.83837 24.018 8.65736C24.018 8.22291 22.3383 7.78846 21.8636 8.1143C21.6445 8.22291 21.4619 8.1143 21.4619 7.86086C21.4619 7.53503 21.9366 7.31781 22.7399 7.2816C23.4337 7.2092 24.018 7.35401 24.018 7.57124C24.018 8.00568 25.3691 8.04189 25.6247 7.60744C25.7342 7.42642 26.1724 7.35401 26.5741 7.46262C27.1948 7.60744 27.3044 7.46262 27.3044 6.62993V5.58002L28.2903 6.62993C29.0206 7.42641 29.1667 7.78846 28.8746 8.25911C28.4364 8.94698 26.5011 9.20042 25.5516 8.69356C25.0039 8.40392 24.7118 8.44012 24.3831 8.83837C23.7259 9.59866 24.0545 11.0106 24.8579 10.9382C25.8438 10.8658 27.56 12.8932 28.1808 14.812C28.4729 15.7171 28.7285 16.1154 28.7285 15.7171C28.765 14.7396 27.56 12.2415 26.8297 11.5899C26.4645 11.3364 26.2089 10.9744 26.2089 10.8296C26.2089 10.54 28.4364 9.63486 28.619 9.81588C28.838 10.0693 31.4307 17.7808 31.8688 19.5185C32.4531 21.908 34.3519 26.8317 35.0822 27.9541C35.7395 28.9678 35.3013 29.6919 33.2564 30.9952L31.8688 31.8641L33.1469 31.6469C33.8407 31.5021 34.8266 31.14 35.2648 30.8142C36.1412 30.1987 38.0035 26.2525 37.6018 25.8904C37.4922 25.7818 37.7844 25.275 38.2591 24.7681C38.7338 24.2613 38.9529 23.863 38.7338 23.863C38.5512 23.863 38.0765 24.1889 37.7113 24.5871C36.981 25.3836 35.703 25.5284 34.6075 24.9491C34.0598 24.6595 32.7817 21.6546 32.7817 20.6771C32.7817 20.5323 38.6242 20.7857 44.9414 21.1839C47.7896 21.4012 48.0818 21.4736 47.6801 21.9804C47.2784 22.4511 47.2784 22.4873 47.7166 22.2338C48.0087 22.089 48.9216 21.9442 49.725 21.9804C51.2221 22.0166 51.1491 21.908 49.0312 21.1115C48.3374 20.8581 48.3374 20.8219 49.1407 20.6771C50.2362 20.4961 55.2023 22.8855 55.9326 23.9354C56.6629 24.9129 56.5534 25.0215 55.1658 24.6233L54.0338 24.2975L53.8147 26.1439C53.4861 28.5333 52.9748 29.2212 52.2445 28.2075C51.9524 27.8093 51.3316 27.4834 50.8569 27.4834C50.1997 27.4834 50.0536 27.3386 50.1997 26.7955C50.3092 26.3249 50.0536 25.8904 49.3963 25.456C48.8121 25.094 48.0818 24.3337 47.7166 23.7544L47.0958 22.7045L46.3655 24.0802C45.7448 25.2388 45.5622 25.3836 45.3796 24.8405C45.2335 24.4785 44.6493 23.9716 44.065 23.682C42.5679 22.8855 42.2758 23.0303 43.6269 23.8268C44.9414 24.6233 45.4161 26.1439 44.8319 27.6282C44.3572 28.9316 44.3572 30.4883 44.9049 31.0314C45.2335 31.3572 45.0145 31.4659 43.919 31.5021C43.1156 31.5383 42.0932 31.6107 41.655 31.6469C41.1438 31.6831 40.8152 31.5383 40.8152 31.2486C40.8152 30.4883 39.6467 28.2075 39.3545 28.3885C39.2085 28.4971 39.318 29.2574 39.6467 30.1263C40.1579 31.5383 40.1579 31.7917 39.6101 32.8778L38.9894 34.1087L40.6691 33.8553C51.5142 32.4072 65.7553 32.8778 70.6484 34.9052C72.7298 35.7741 76.6369 40.3358 76.0527 41.2409C75.9797 41.3857 76.2353 42.2184 76.6735 43.0873C77.0751 43.9562 77.5133 45.332 77.6229 46.1647L77.7689 47.649L67.9462 47.468C61.2639 47.3594 57.3202 47.4318 55.5675 47.7214C51.8794 48.3369 44.9049 50.0747 45.5987 50.2195C45.9273 50.2557 47.7896 49.8937 49.798 49.3868C54.9467 48.0473 59.9858 47.649 67.8367 47.9025C71.5613 48.0111 75.1763 48.2283 75.9066 48.3369C78.6088 48.7714 79.2296 46.0923 77.1482 42.9787C76.6004 42.1822 76.2718 41.4582 76.3813 41.3495C76.4544 41.2409 76.8195 41.6754 77.1482 42.2908C77.7324 43.4494 78.4262 43.7752 78.4262 42.9425C78.4262 42.146 77.5498 40.5168 77.1116 40.5168C76.856 40.5168 76.4179 40.1186 76.0892 39.6117C75.2128 38.2722 75.8701 38.4894 78.4627 40.372C83.1367 43.7752 87.9933 49.3144 89.4904 52.971C89.746 53.5865 89.673 53.5865 89.1253 53.152C88.5775 52.6814 88.541 52.7176 88.7966 53.3693C88.9427 53.7675 89.1618 54.8898 89.2713 55.8673C89.4904 57.6051 89.4904 57.6413 88.6141 57.4241C88.1394 57.2793 87.5916 57.1707 87.3725 57.1345C87.19 57.1345 87.336 56.9897 87.7377 56.8086C88.3219 56.5552 88.1394 56.4828 87.0074 56.4828C85.2911 56.4466 82.516 57.6051 82.1873 58.474C82.0413 58.8361 82.1873 59.2343 82.516 59.4877C82.8811 59.7412 82.9541 60.1394 82.7716 60.6101C82.6255 61.0083 82.516 62.4565 82.516 63.8684C82.5525 65.2442 82.6255 65.8234 82.6985 65.1356C83.1367 60.4652 83.5749 59.705 85.072 61.0083C85.5102 61.4065 85.7293 61.5152 85.5833 61.2617C85.4007 60.9359 85.8754 60.8273 87.336 60.8273L89.3079 60.8635L88.7966 62.1306C88.395 63.0719 88.3585 63.5064 88.6506 63.8684C89.1253 64.4115 88.9062 64.5925 87.2995 64.9183C86.1675 65.1718 86.131 65.1718 85.9849 63.615C85.9119 62.7461 85.8389 63.7236 85.8024 65.751C85.7658 67.7784 85.9119 69.8783 86.0945 70.3851C86.4231 71.254 86.3866 71.3264 85.8754 71.1454C85.1086 70.8558 84.2687 71.5437 84.2687 72.4126C84.2687 72.8108 84.1226 73.1004 83.9401 73.1004C83.3193 73.1004 82.735 72.0505 82.9907 71.254C83.1732 70.7472 83.1367 70.5661 82.8446 70.711C82.1508 71.1454 82.3699 73.028 83.1732 73.4625C84.5243 74.1865 85.8389 73.7521 86.4596 72.4488C86.7883 71.7247 87.336 71.2178 87.9203 71.073C90.2207 70.5661 93.0324 69.3352 93.8358 68.5025L94.6756 67.5612L93.142 68.5025C91.0606 69.8059 87.1899 71.073 86.7152 70.6024C85.9849 69.8783 86.8248 69.2628 89.0157 68.8284C91.937 68.2853 94.6391 66.982 94.7852 66.0407C94.9313 65.3528 94.8947 65.3528 94.1644 66.1131C93.3611 66.9458 89.3444 68.3577 87.3725 68.5025C86.3501 68.5749 86.2771 68.5025 86.1675 67.0906L86.058 65.6062L87.8107 65.1718C90.6954 64.4839 91.5718 64.0132 91.7909 63.0719C92.1926 61.479 91.6814 56.7 90.8415 54.564C88.5775 48.5179 82.2969 41.9288 74.2999 37.1137C73.7522 36.7878 72.9124 35.8827 72.4011 35.0863C71.1596 33.1674 70.1372 32.552 67.2159 32.0813C65.8649 31.8641 64.6964 31.6469 64.6233 31.6107C64.5503 31.5745 64.9154 31.14 65.4267 30.6332C66.5952 29.4746 66.5952 29.1126 65.4267 27.9903C64.6598 27.1938 64.2947 27.0852 63.1627 27.3024C59.6937 27.9179 57.8314 27.1576 56.9185 24.6957C56.3343 23.1027 54.2164 21.546 51.4047 20.6047C48.7025 19.6996 39.4641 19.0117 35.1552 19.3737L32.5626 19.591L31.3576 16.405C30.5543 14.3052 30.2622 13.1828 30.5543 13.0742C30.7734 13.0018 30.956 12.7122 30.956 12.4226C30.956 12.1329 31.175 11.9157 31.4307 11.9157C31.6497 11.9157 31.2481 11.3002 30.4447 10.5762C29.2397 9.49004 29.1302 9.23662 29.6414 8.94698C30.4447 8.47633 30.3717 8.1143 29.2762 7.06438C28.5459 6.4127 28.3633 5.94205 28.4729 5.21797C28.619 4.4577 28.4364 4.09565 27.5965 3.48018C27.0488 3.04573 26.6471 2.50268 26.7201 2.24925C26.8297 1.99582 26.8662 1.8148 26.8297 1.8148C26.7932 1.85101 26.1724 1.99583 25.4786 2.14064ZM34.8996 20.134C34.5345 20.2064 33.8772 20.2064 33.439 20.134C32.9643 20.0616 33.2564 19.9892 34.0598 19.9892C34.8631 19.953 35.2283 20.0254 34.8996 20.134ZM44.2111 20.134C43.7364 20.2064 43.0061 20.2064 42.5679 20.134C42.0932 20.0616 42.4584 19.9892 43.3713 19.9892C44.2841 19.9892 44.6493 20.0616 44.2111 20.134ZM49.6519 27.773C49.5059 28.9678 49.5424 29.0402 50.0901 28.6057C50.6013 28.1713 50.6744 28.2075 50.6744 28.7144C50.6744 29.1126 50.8569 29.2574 51.1491 29.0764C51.3682 28.9316 51.3316 29.1126 51.003 29.4384C50.6744 29.8005 49.7615 30.1625 48.9947 30.2711C47.7896 30.4159 47.4245 30.3073 46.6942 29.5108C45.9273 28.7144 45.8543 28.4609 46.2195 27.7006C46.4386 27.23 46.5116 26.5059 46.402 26.1077C46.329 25.7094 46.402 25.0215 46.6577 24.6233C47.0593 23.863 47.0958 23.863 48.4469 25.1302C49.6154 26.2525 49.7615 26.5783 49.6519 27.773ZM58.3792 27.2662C58.9999 27.773 59.8763 28.2075 60.3875 28.2075C61.556 28.2075 62.7245 29.4022 62.7245 30.6332V31.5745L57.5393 31.2848C54.6546 31.14 51.3316 31.0314 50.1266 31.0676H47.9357L49.5789 30.6332C50.4918 30.3435 51.6238 30.0177 52.135 29.8367C52.9748 29.5832 53.0114 29.5832 52.5001 30.1987C52.0254 30.778 52.0254 30.8504 52.5001 30.6694C52.7923 30.597 53.34 29.6919 53.7052 28.7144C54.7641 25.818 56.1517 25.4198 58.3792 27.2662ZM35.9586 26.6869C36.2507 26.868 36.2872 27.1214 36.0316 27.4834C35.7395 27.9541 35.6665 27.9541 35.3378 27.4834C34.6805 26.5059 35.0092 26.0715 35.9586 26.6869ZM65.2076 28.2799C65.4632 28.5333 65.6458 28.9678 65.6458 29.2574C65.6092 29.6919 65.4997 29.6557 65.2076 29.1126C64.9885 28.7144 64.6233 28.2799 64.4042 28.1351C64.1486 27.9541 64.1121 27.8455 64.4042 27.8455C64.5868 27.8455 64.952 28.0265 65.2076 28.2799ZM64.3677 28.6782C64.7329 28.9678 64.9154 29.366 64.7694 29.5832C64.3312 30.3073 63.2357 30.0539 62.7975 29.1126C62.4324 28.3161 62.4689 28.2075 63.0166 28.2075C63.3818 28.2075 63.966 28.4247 64.3677 28.6782ZM46.6942 30.7418C46.9133 30.7418 46.9498 30.8866 46.8402 31.1038C46.4751 31.6469 45.6717 31.5383 45.4161 30.8866C45.2335 30.4521 45.3431 30.3435 45.7813 30.5246C46.0734 30.6332 46.5116 30.7418 46.6942 30.7418ZM86.4596 57.1707C86.1675 57.3517 85.6198 57.5327 85.2546 57.5327C84.8895 57.5327 84.2322 57.7137 83.8305 57.931C83.1002 58.3292 83.1002 58.3654 84.1226 59.0171C84.7069 59.3791 85.9119 59.7412 86.8248 59.7412C88.1028 59.8136 88.2124 59.8498 87.3725 59.9584C86.131 60.1756 82.4429 59.4515 82.4429 59.0171C82.4429 58.2206 84.853 56.881 86.2771 56.8448C86.8978 56.8086 86.8978 56.881 86.4596 57.1707ZM90.1112 59.1619C90.1112 59.4515 89.8556 59.705 89.5635 59.705C89.0888 59.705 89.0522 59.5963 89.4539 59.1619C90.0382 58.5102 90.1112 58.5102 90.1112 59.1619ZM91.4258 62.4565C91.2797 62.9271 90.878 63.4702 90.4398 63.6874C89.7095 64.0856 89.7095 64.0856 90.2938 62.9995C90.5859 62.384 90.9876 61.1169 91.1336 60.1756L91.3892 58.4378L91.4988 60.0308C91.5718 60.9359 91.5353 62.022 91.4258 62.4565Z" fill="black"/>
<path d="M19.417 3.26302C18.7963 3.91469 18.7963 4.09571 19.271 4.9284C19.9648 6.15934 21.0237 6.59379 20.3664 5.39905C20.1108 4.96461 20.0378 4.13192 20.1474 3.55265C20.403 2.28551 20.3299 2.28551 19.417 3.26302Z" fill="black"/>
<path d="M30.8464 4.3491C31.1385 4.92836 31.3211 5.76105 31.2116 6.1593C31.0655 6.77477 31.102 6.81097 31.5402 6.44893C32.234 5.90587 32.1975 4.49392 31.4672 3.80604C30.5543 2.86474 30.2257 3.15437 30.8464 4.3491Z" fill="black"/>
<path d="M21.827 3.95086C21.5349 4.13188 21.3889 4.3491 21.4984 4.45771C21.608 4.56633 22.0096 4.42151 22.4113 4.13188C23.1781 3.55261 22.7034 3.4078 21.827 3.95086Z" fill="black"/>
<path d="M23.2877 3.87842C23.2877 4.05944 23.5433 4.42148 23.8355 4.67491C24.1276 4.92834 24.3832 4.96454 24.3832 4.74732C24.3832 4.5663 24.1276 4.20426 23.8355 3.95083C23.5433 3.6974 23.2877 3.6612 23.2877 3.87842Z" fill="black"/>
<path d="M29.1302 5.94211C29.1302 6.26795 29.3858 6.59378 29.6779 6.7386C30.5543 7.06443 30.6638 6.70239 29.8605 6.01452C29.2397 5.50766 29.1302 5.47146 29.1302 5.94211Z" fill="black"/>
<path d="M29.3127 18.4324C29.4588 18.9393 29.6414 19.6272 29.7509 19.953C29.897 20.3875 29.7509 20.6047 29.3493 20.6047C28.9841 20.6047 28.838 20.4237 28.9841 20.2064C29.2762 19.6996 26.355 19.953 22.4113 20.7857C17.9564 21.727 16.8974 22.6321 13.5745 28.3885L12.333 30.5608L13.465 29.2936C14.6335 27.9903 14.597 28.3161 13.3189 30.1263L12.6251 31.14L13.6476 32.2262C14.1953 32.8054 14.8161 33.2761 15.0351 33.2761C15.2177 33.2761 14.9256 32.8054 14.3779 32.2262L13.3554 31.1762L14.2318 29.9453C14.743 29.2936 15.6194 27.8817 16.2036 26.8318C17.2991 24.7681 18.7963 23.6458 21.827 22.6321C23.6528 22.0166 30.2256 20.8219 30.4447 21.0753C30.5178 21.1477 30.7003 21.9804 30.8099 22.8855C31.029 24.3699 30.9925 24.5871 30.3717 24.5871C29.7874 24.5871 29.7874 24.6595 30.5178 25.1664C31.5037 25.8543 31.6497 27.4834 30.7003 27.2662C30.3352 27.1938 27.7791 26.9766 25.0039 26.7594C21.2428 26.5059 19.5631 26.5059 18.3216 26.8318C17.4452 27.0852 16.7149 27.3748 16.7149 27.4834C16.7149 27.7731 21.754 27.6645 23.6528 27.3386C26.7932 26.7594 24.8578 27.4834 21.2428 28.2437C17.5182 29.0402 14.0127 30.5246 14.2683 31.2486C14.3414 31.4659 14.8891 31.9727 15.5099 32.4072L16.6053 33.1313L15.2542 34.2536C13.5745 35.6655 11.201 39.6118 10.1421 42.6891C9.3022 45.151 9.26569 45.7302 9.996 55.1795L10.2516 58.4378L9.44827 57.75C9.01008 57.3517 8.75447 56.8087 8.86402 56.519C8.97356 56.1932 7.98764 54.926 6.30793 53.2245C4.00744 50.9074 3.56926 50.6178 3.56926 51.3056C3.56926 51.7763 3.42319 52.0297 3.2041 51.9211C2.98501 51.7763 2.83894 49.9661 2.83894 47.649C2.83894 43.7028 2.36424 38.2722 1.88954 36.8241C1.74348 36.3896 1.48787 36.2086 1.12271 36.3172C0.574979 36.5344 0.611494 35.8466 1.26877 34.145C1.41484 33.7467 1.37832 33.6019 1.0862 33.7829C0.355885 34.2174 -0.191848 38.055 0.0637608 41.2409C0.355885 45.0786 0.867104 46.925 1.70696 47.3594C2.21818 47.649 2.40076 48.3369 2.58334 50.7988C2.87546 54.8174 3.49623 56.2656 5.02988 56.5914C5.68716 56.7 6.56353 56.8087 6.96521 56.8087C7.36688 56.8087 8.24325 57.4241 8.86402 58.1482C10.0325 59.4877 10.0325 59.5602 9.55781 60.7549C8.97356 62.1668 8.86402 64.0494 9.41175 64.0494C9.63084 64.0494 9.77691 63.8684 9.77691 63.615C9.77691 63.3978 9.88645 63.3254 10.0325 63.434C10.1421 63.5788 10.5802 63.434 10.9454 63.0719C11.5662 62.5289 11.6027 62.5289 11.6027 63.253C11.6027 63.6874 11.9678 64.2305 12.406 64.4477L13.1729 64.8821L12.406 63.5426C11.9678 62.8185 11.7122 61.9858 11.8583 61.66C11.9678 61.3342 11.6027 61.5514 11.0184 62.1306C10.1055 62.9995 9.95948 63.0719 9.84994 62.4927C9.77691 62.1306 10.069 61.1893 10.4707 60.3928C11.3836 58.6551 11.4566 56.4828 10.6533 51.7401C9.996 47.7577 10.1786 45.332 11.4201 42.0736C12.6251 38.8877 14.4509 36.2448 16.934 34.0726C19.5631 31.7555 20.4395 31.6107 18.7597 33.8191C17.2626 35.7379 17.2626 35.7379 16.5323 40.2634C16.2402 42.2547 15.802 44.1373 15.6194 44.4993C15.4003 44.8613 15.2542 45.2958 15.2542 45.4768C15.2908 45.6216 15.5829 45.1872 15.9846 44.4631C16.3497 43.7752 16.934 41.7116 17.2626 39.9376C17.9929 36.1724 18.7597 34.5432 20.5125 33.0226C22.4113 31.3573 23.9815 30.959 27.9617 31.2124C30.9559 31.4297 32.1244 31.2849 33.0373 30.597C33.1104 30.5608 32.8182 29.6919 32.4166 28.6782C32.0514 27.6645 31.5767 25.637 31.3576 24.1527C31.175 22.6683 30.5908 20.6409 30.0796 19.5186C29.5318 18.4324 29.2032 17.9256 29.3127 18.4324ZM23.2877 21.4736C19.271 22.4873 17.3356 23.6096 15.9846 25.637C15.4003 26.5421 14.8891 27.1214 14.8891 26.868C14.8891 25.9991 17.3356 23.2838 18.7232 22.5959C20.3299 21.7994 24.5292 20.6409 25.6612 20.6771C26.0629 20.6771 25.0039 21.0391 23.2877 21.4736ZM5.68716 53.6589C5.65064 53.7313 5.83322 54.0934 6.12535 54.4916C6.63657 55.1433 6.63657 55.1433 5.94277 54.6364C5.5411 54.3468 5.13943 54.0934 5.0664 54.0209C5.02988 53.9847 5.0664 53.7675 5.21246 53.5503C5.35852 53.3331 5.5411 53.2245 5.65064 53.3331C5.72368 53.4055 5.76019 53.5503 5.68716 53.6589ZM5.57761 55.3967C5.21246 55.9398 4.66472 55.7587 4.88382 55.1795C5.02988 54.8898 5.24897 54.745 5.43155 54.8536C5.61413 54.9623 5.68716 55.2157 5.57761 55.3967Z" fill="black"/>
<path d="M52.5002 22.5597C52.5002 22.6321 52.7558 22.8131 53.0844 22.9217C53.3766 23.0303 53.5226 22.9941 53.4131 22.7769C53.194 22.4149 52.5002 22.27 52.5002 22.5597Z" fill="black"/>
<path d="M39.8293 24.0441L39.4276 24.9492L40.4866 24.3338C41.6916 23.6097 41.8742 23.139 40.9248 23.139C40.5596 23.139 40.0849 23.5373 39.8293 24.0441Z" fill="black"/>
<path d="M43.4443 26.506C43.4808 27.1214 43.2617 28.1352 43.0061 28.7506L42.5314 29.8367L42.2758 28.9316C42.0567 28.0627 42.0567 28.0627 41.8011 29.2575C41.436 30.9953 41.509 31.3573 42.0567 30.6332C42.4949 30.0902 42.6045 30.0902 43.0061 30.5608C43.2617 30.8505 43.5539 31.1039 43.6999 31.1039C44.0651 31.1039 44.1746 25.7457 43.8095 25.5285C43.5904 25.4199 43.4443 25.8181 43.4443 26.506Z" fill="black"/>
<path d="M50.6744 25.7457C50.6744 26.2887 52.5367 26.5059 53.0479 25.9991C53.4861 25.5646 53.34 25.4922 52.135 25.4922C51.3317 25.456 50.6744 25.6008 50.6744 25.7457Z" fill="black"/>
<path d="M38.2591 25.9267C38.2591 26.1077 38.5878 26.4335 38.9894 26.6869C39.3911 26.9404 39.7197 26.9766 39.7197 26.7593C39.7197 26.5783 39.3911 26.2525 38.9894 26.0353C38.5878 25.818 38.2591 25.7818 38.2591 25.9267Z" fill="black"/>
<path d="M5.02992 29.1488C3.53278 29.8005 1.37836 31.7555 1.37836 32.4796C1.37836 32.7692 2.07215 32.2262 2.94853 31.2849C4.33612 29.7643 4.70127 29.5471 6.34448 29.4023C7.62252 29.2575 8.53541 29.4023 9.33875 29.8005C9.95952 30.1263 10.7629 30.3798 11.128 30.3436C12.1139 30.3074 8.2798 28.5696 7.22085 28.6058C6.70963 28.6058 5.72371 28.8592 5.02992 29.1488Z" fill="black"/>
<path d="M7.76859 31.5383C6.74615 32.0813 4.66476 34.0726 4.66476 34.4708C4.66476 34.6518 5.32204 34.2174 6.08887 33.5295C7.36692 32.371 8.27981 32.0089 11.055 31.3573C11.4567 31.2486 11.055 31.1762 10.1421 31.14C9.22921 31.14 8.17026 31.3211 7.76859 31.5383Z" fill="black"/>
<path d="M1.7435 33.7829C1.7435 33.8554 2.03562 34.145 2.40078 34.3984C2.94851 34.8691 2.98503 34.8329 2.51033 34.2536C2.03562 33.6743 1.7435 33.4933 1.7435 33.7829Z" fill="black"/>
<path d="M38.113 35.6655C37.5288 36.3534 35.1552 38.1998 32.8182 39.7928C25.6247 44.6441 23.4337 46.8887 21.5349 51.4504C19.8917 55.4329 19.8187 56.157 21.2793 53.5503C24.8213 47.4318 27.3409 44.7889 33.5851 40.553C37.7113 37.8015 39.3545 36.2086 39.3545 35.05C39.3545 34.1811 39.391 34.1811 38.113 35.6655Z" fill="black"/>
<path d="M26.3185 36.1362C23.4337 37.9826 18.9423 42.4719 17.9199 44.4993C17.4087 45.5492 16.9705 47.5042 16.7149 49.9299C16.3497 53.0797 16.0211 54.2382 14.8891 56.6277C14.0492 58.3292 13.3919 60.3567 13.2459 61.5152C13.0998 62.9633 13.1363 63.3616 13.3919 62.9633C13.611 62.6737 13.7936 62.1669 13.7936 61.8772C13.7936 61.5514 14.5604 59.7774 15.4733 57.8948C16.9339 54.9261 17.2626 53.9124 17.7008 50.473C17.9929 48.1559 18.5406 45.8389 18.9788 44.8976C19.9282 42.9425 23.4702 39.1773 26.3915 36.9689C29.2032 34.8691 29.3492 34.7242 28.9111 34.7242C28.692 34.7242 27.5235 35.3759 26.3185 36.1362Z" fill="black"/>
<path d="M4.37264 36.3534C5.13946 37.1499 5.79674 37.6929 5.86978 37.5843C5.94281 37.5119 5.32204 36.8965 4.5187 36.2086L3.02156 34.9414L4.37264 36.3534Z" fill="black"/>
<path d="M52.5001 36.5344C51.9159 36.7155 52.7192 36.8241 54.7641 36.7879C56.5168 36.7879 58.16 36.643 58.4156 36.4982C59.0364 36.1 53.7417 36.1362 52.5001 36.5344Z" fill="black"/>
<path d="M50.9665 36.7516C50.4918 37.1861 50.6013 37.4033 52.3175 39.5755C53.1939 40.7341 54.472 42.5805 55.1292 43.7028C55.75 44.8613 56.4438 45.875 56.6629 46.0199C57.2471 46.4181 61.0083 46.3457 61.629 45.9474C61.9942 45.694 61.4099 45.6216 59.7302 45.694C58.16 45.7302 57.1376 45.6216 56.8455 45.2958C56.4803 44.9337 57.1741 44.8613 60.3875 44.8251C62.5784 44.8251 64.6963 44.6441 65.098 44.4631C65.5727 44.2459 64.1486 44.1735 60.8622 44.2821L55.8961 44.4269L55.2023 43.1235C54.8371 42.3633 54.472 41.6754 54.3989 41.4944C54.3259 41.3495 56.2612 41.2409 58.6713 41.2409C61.3734 41.2409 63.0896 41.0961 63.0896 40.8789C63.0896 40.4444 59.9858 40.4444 56.4073 40.8427L53.9242 41.0961L52.7192 39.4669C52.0254 38.5618 51.4412 37.5119 51.3681 37.1499C51.2951 36.7516 51.1125 36.6068 50.9665 36.7516Z" fill="black"/>
<path d="M61.0083 37.2586C62.1038 38.1275 65.7918 43.2322 66.157 44.3908C66.3761 45.0424 66.23 45.1873 65.3902 45.2959L64.3677 45.4407L65.3902 45.7303C66.8143 46.1648 67.362 45.5493 66.7778 44.2459C65.6823 41.8927 61.2639 36.5707 60.3875 36.5345C60.205 36.5345 60.4971 36.8603 61.0083 37.2586Z" fill="black"/>
<path d="M3.82489 37.6929C3.3867 39.5393 3.13109 45.6578 3.42322 47.287C3.67882 48.6989 3.78837 47.8663 3.93443 43.0511C4.04398 39.7566 4.11701 37.0413 4.0805 36.9689C4.04398 36.8965 3.93443 37.2223 3.82489 37.6929Z" fill="black"/>
<path d="M55.4214 37.9826L52.6827 38.1998L56.2613 38.2722C58.5617 38.3084 59.7668 38.1998 59.6207 37.9826C59.5112 37.7653 59.1095 37.6567 58.7808 37.6929C58.4522 37.7291 56.9185 37.8377 55.4214 37.9826Z" fill="black"/>
<path d="M67.1794 39.0687C67.6906 40.0824 68.1653 40.5169 68.713 40.5169C69.2973 40.5169 69.3703 40.6255 68.9686 40.8427C68.567 41.0961 68.6035 41.2409 69.1512 41.5668C69.5529 41.784 69.6989 41.965 69.5529 41.965C69.3703 41.965 69.5164 42.2185 69.8085 42.5443C70.1371 42.8339 70.3197 43.2322 70.2102 43.4132C69.9911 43.7752 70.904 44.1373 72.0725 44.1373C72.9488 44.1373 72.9488 44.1011 72.4376 43.1236C72.1455 42.5805 71.5612 41.784 71.1596 41.3496C70.7214 40.9151 70.3927 40.4083 70.3927 40.2272C70.3927 40.01 69.9545 39.6118 69.4433 39.2497C68.7495 38.8153 68.6035 38.5619 68.9321 38.3446C69.3703 38.0912 68.2748 37.6206 67.0698 37.6206C66.5221 37.6206 66.5586 37.8016 67.1794 39.0687Z" fill="black"/>
<path d="M7.76856 39.4308C8.13372 39.829 8.49887 40.1548 8.60842 40.1548C8.71797 40.1548 8.49887 39.829 8.13372 39.4308C7.76856 39.0325 7.40341 38.7067 7.29386 38.7067C7.18431 38.7067 7.40341 39.0325 7.76856 39.4308Z" fill="black"/>
<path d="M44.6128 39.648C44.2477 39.9376 44.1016 40.1186 44.3572 40.01C44.5763 39.9014 45.0145 39.9014 45.3431 40.01C45.8178 40.191 45.8543 40.3358 45.5257 40.7341C45.1605 41.1685 45.2336 41.2047 45.7448 41.0237C46.2195 40.8427 46.329 40.8789 46.1465 41.1685C46.0004 41.4219 46.11 41.8564 46.4386 42.146C46.7307 42.4357 46.9133 43.0511 46.8403 43.4494C46.6942 44.1372 46.8037 44.2097 47.8262 43.9924C48.4469 43.8838 49.0677 43.7752 49.2503 43.7752C49.8711 43.7752 49.5789 42.7253 48.4469 40.9151C47.1689 38.8877 46.0369 38.5256 44.6128 39.648Z" fill="black"/>
<path d="M35.8856 42.5081C35.9951 43.0874 36.5429 44.2459 37.0906 45.0062C38.2591 46.7078 41.6915 49.5679 42.5314 49.5679C42.86 49.5679 42.3853 49.061 41.509 48.4455C38.8433 46.5629 37.4923 45.151 36.5429 43.2322C35.8856 41.8926 35.703 41.7116 35.8856 42.5081Z" fill="black"/>
<path d="M79.047 41.8564C78.974 42.0374 79.6313 42.6891 80.5076 43.3408C82.0778 44.4993 82.2604 44.3545 81.0189 42.9425C80.2885 42.0736 79.2296 41.5306 79.047 41.8564Z" fill="black"/>
<path d="M48.52 44.2459C47.8262 44.4993 47.2054 44.8976 47.0959 45.1872C46.9863 45.5492 47.2784 45.6216 48.52 45.4044C50.3457 45.1148 51.6603 44.5355 50.5648 44.4993C50.1997 44.4993 50.0171 44.3183 50.1267 44.1373C50.4188 43.6666 50.0901 43.7028 48.52 44.2459Z" fill="black"/>
<path d="M19.4171 58.7999C19.1615 59.4877 18.9059 60.2118 18.9059 60.429C18.9059 60.6463 18.0295 61.66 17.007 62.6737C15.802 63.796 15.3638 64.4115 15.802 64.2667C16.5323 64.0494 16.6054 64.2667 16.9705 68.1767C17.4817 72.9556 18.3946 75.5261 19.9648 76.4674C21.3889 77.3001 21.7906 77.2277 22.0462 76.214C22.1557 75.6709 22.4479 75.3813 22.74 75.4899C23.3242 75.7433 24.018 73.6073 24.018 71.5075C24.018 70.1679 24.0545 70.1317 24.6753 70.6748C25.0405 71.0368 25.5152 71.2902 25.6978 71.2902C25.8803 71.2902 26.5011 71.6523 27.0488 72.1229C27.9617 72.847 28.0347 73.028 27.7061 73.9331C27.4505 74.5848 27.4505 74.8744 27.6696 74.7296C27.8887 74.621 28.0347 74.259 28.0347 73.9693C28.0347 73.3177 27.9617 73.3177 29.7145 74.1504C31.6498 75.0917 37.9305 75.9968 42.9696 76.1054C46.7672 76.1778 47.2419 76.2502 47.9723 76.9743C48.447 77.4449 49.0677 77.807 49.3964 77.807C51.1491 77.807 52.3906 75.9968 51.7334 74.3314C51.5508 73.7883 51.4412 73.3177 51.4777 73.2453C51.6603 73.1004 60.278 72.3764 60.4241 72.5212C60.4971 72.5574 60.4241 73.1366 60.3145 73.7521C60.0954 74.8744 60.0589 74.8744 57.4663 75.0193L54.8737 75.1279L57.6124 75.2365L60.351 75.3089L61.3735 77.4087C61.9212 78.5672 62.3594 79.8344 62.3594 80.1964C62.3594 81.3187 62.7976 82.5135 63.0897 82.3325C63.4183 82.1152 64.0026 84.9753 63.7105 85.3012C63.6009 85.4098 63.3453 84.9391 63.1262 84.2875C62.8706 83.3462 62.7976 83.2376 62.7611 83.8892C62.7245 84.3599 62.9802 85.2288 63.3088 85.8442C63.82 86.8218 63.82 87.2562 63.4549 89.1026C63.0167 91.0214 62.9436 91.13 62.5785 90.4059C62.1403 89.5371 59.5112 88.7044 57.1742 88.6682C55.6405 88.6682 54.9467 89.5008 55.1293 91.13C55.2389 91.9627 55.604 92.2161 58.1236 93.1574C60.4241 93.9901 61.1544 94.0988 61.7021 93.7729C62.0673 93.5557 62.688 93.3747 63.1262 93.3747C64.8059 93.3747 65.5728 91.3835 64.9885 88.5233C64.4408 85.9891 63.7835 80.9929 63.9661 80.8119C64.0391 80.7395 64.8059 81.7894 65.6458 83.1289C66.7047 84.7943 67.4351 86.5321 67.9098 88.4871C68.2749 90.0801 68.8957 91.7817 69.2608 92.2886C69.699 92.904 69.8816 93.5919 69.7721 94.316C69.626 95.2211 69.8816 95.8003 71.1962 97.3933C72.9854 99.6018 73.8618 99.8914 75.0668 98.8053C76.1988 97.7554 76.0892 96.814 74.5556 94.9676C73.8253 94.0988 73.3141 93.3747 73.4236 93.3747C73.4966 93.3747 74.3 93.7729 75.1764 94.2798C76.7465 95.1487 79.1931 97.3571 80.5442 99.1311L81.2379 100L83.9036 99.3121C85.3642 98.9501 86.7883 98.407 87.0804 98.1536C87.7742 97.4657 87.6647 95.7641 86.8613 94.7866C86.2041 93.9539 86.0945 93.9539 83.9401 94.3884C82.6986 94.6418 81.457 94.9314 81.1649 95.0401C80.8728 95.1487 80.5807 94.8952 80.3981 94.3884C80.252 93.9177 79.1931 92.6506 78.0611 91.5645C76.564 90.1163 75.6145 88.7768 74.6651 86.7855L73.3871 83.9978L75.2494 81.8256C76.3083 80.6309 77.2212 79.6534 77.3673 79.6534C77.4768 79.6172 77.915 80.3412 78.3167 81.2101C79.2296 83.0565 83.2098 87.401 84.6704 88.1613C85.2547 88.4509 86.6788 88.8854 87.8838 89.175C89.0888 89.4646 90.6225 90.0801 91.2797 90.587C91.937 91.0938 93.2151 91.7093 94.1279 91.9265C95.0408 92.1799 95.5521 92.4696 95.333 92.542C94.8217 92.723 94.7122 93.6643 95.0774 94.6056C95.2599 95.0401 95.8442 95.1849 97.816 95.1849C100.153 95.1849 100.372 95.1125 100.737 94.316C101.322 93.085 100.883 91.7093 99.8974 91.4197C99.4227 91.311 98.2907 91.2024 97.3413 91.2024C96.0633 91.2024 95.1869 90.9128 93.8723 90.1163C92.9229 89.5008 91.791 89.0302 91.3162 89.0302C88.8332 89.0302 85.7294 86.7493 83.721 83.4186C82.9177 82.079 81.5666 79.943 80.7267 78.6759C79.8503 77.4087 79.1566 76.1054 79.1566 75.8157C79.1566 75.5261 79.0105 75.3089 78.7914 75.3813C78.1341 75.5261 74.4095 69.7335 74.8842 69.2266C75.6511 68.5025 78.7914 72.1591 78.8279 73.7883C78.8279 74.7296 78.8279 74.7296 79.1566 73.8969C79.3757 73.4263 79.8503 73.1004 80.3251 73.0642C81.0189 73.028 80.9823 72.9918 80.106 72.7746C79.5217 72.666 78.8279 72.1953 78.5358 71.7609C77.915 70.8558 77.7325 70.9644 81.457 70.3127C82.443 70.1679 83.2098 69.8421 83.1733 69.6611C83.1368 69.2628 82.8446 69.2628 79.3026 69.6611C77.5134 69.8783 76.8926 69.8059 76.0892 69.299C75.1398 68.6836 75.1398 68.6474 75.8336 68.1405C76.2353 67.8871 76.4909 67.4164 76.3814 67.1268C76.1258 66.5113 74.9207 66.4027 74.5921 66.9458C74.2635 67.4888 73.6062 66.982 73.8253 66.3665C73.9348 66.0769 73.8253 65.9683 73.4601 66.1131C73.2045 66.2217 72.9489 66.1131 72.9489 65.8959C72.9489 65.389 70.1737 65.4252 65.2806 66.0407L61.4465 66.5475L65.1346 66.4027C67.1429 66.2941 69.553 66.1131 70.5024 66.0045C72.9124 65.6786 72.7298 66.4389 70.3198 66.9096C69.2608 67.1268 66.9969 67.3078 65.2806 67.344C63.5644 67.344 61.7021 67.3802 61.0813 67.4164C60.4971 67.4526 59.5842 67.344 59.1095 67.163C58.3792 66.9096 58.2696 66.982 58.4522 67.4526C58.5983 67.7785 58.6348 68.0681 58.5983 68.0681C58.5618 68.1043 56.809 68.2491 54.6911 68.3939L50.857 68.6474L54.399 68.6836C56.3343 68.7198 58.3427 68.6112 58.8904 68.3939C59.6207 68.1043 60.0589 68.1767 60.8257 68.6474C61.3735 68.9732 61.8482 69.2628 61.8482 69.2628C61.8847 69.299 61.9942 69.6611 62.1403 70.0593C62.4689 71.1092 61.2639 71.5437 56.6995 71.9057C51.1491 72.3402 51.2587 72.3402 51.003 71.1092C50.784 70.0955 50.7474 70.0593 50.7109 70.9644C50.7109 71.4713 50.8935 72.666 51.1856 73.6073C51.6238 75.0917 51.6238 75.2365 51.1856 74.8744C50.784 74.5486 50.4188 74.5486 49.5789 74.9106C48.3374 75.4175 48.3374 75.4175 48.8851 76.4312C49.2138 77.0105 49.1773 77.1191 48.7756 77.0105C48.4835 76.9019 48.2644 76.1416 48.2279 74.8744C48.1548 73.5711 48.2644 73.1729 48.447 73.6435C48.7026 74.2952 48.7391 74.2228 48.8851 73.2815C48.9582 72.666 48.9582 70.3851 48.8121 68.2129L48.6295 64.2305L48.52 68.5749C48.3739 73.7521 47.8627 72.9918 47.7532 67.4888C47.7166 65.0632 47.5706 64.1581 47.388 64.7735C46.9863 66.0407 46.9863 69.0094 47.388 70.7472C47.5706 71.5437 47.6436 72.2315 47.5706 72.3402C47.2054 72.7022 44.8684 72.7022 37.8574 72.3764C32.5262 72.1229 29.897 71.8333 28.9476 71.4351C27.8887 71.0006 27.487 70.9644 27.3044 71.3264C27.0853 71.6161 26.7932 71.5799 26.0994 71.073C24.4927 69.8783 23.2877 67.525 22.7035 64.5201C21.6445 58.8723 21.2063 57.5327 20.2934 57.5327C20.1109 57.5327 19.7092 58.112 19.4171 58.7999ZM21.0968 59.6326C21.2794 60.3566 21.5715 62.2755 21.681 63.8684C21.8271 65.4614 22.1557 67.2354 22.4479 67.8509C22.9226 68.8646 22.9226 68.8646 22.3748 68.2129C21.8636 67.5612 21.8271 67.7785 21.9001 70.7472C21.9366 74.5124 21.608 76.3588 20.8777 76.3588C20.2204 76.3588 20.2204 76.3588 20.9872 74.9106C21.4985 73.8245 21.535 72.9556 21.2063 66.6923C20.9872 62.3479 20.6951 59.524 20.4395 59.2705C19.9283 58.7637 19.8553 57.75 20.3665 58.0758C20.5491 58.1844 20.8777 58.8723 21.0968 59.6326ZM20.6586 64.9545C20.6951 66.7647 20.6221 66.982 20.2934 66.2941C20.0744 65.8596 19.7457 65.4976 19.5631 65.4976C19.3806 65.4976 19.5996 66.1493 20.0013 66.982C20.5856 68.1043 20.7316 68.7922 20.5125 70.0593C20.2569 71.7971 19.7457 72.4126 19.2345 71.6161C18.9424 71.1454 17.4087 64.9907 17.4087 64.2305C17.3722 63.5426 18.1025 63.6874 18.2851 64.4115C18.3946 64.8097 18.6868 65.1356 18.9059 65.1356C19.2345 65.1356 19.3075 64.7011 19.1615 63.6512C19.0519 62.8185 19.0884 61.8048 19.271 61.3704C19.4536 60.9721 19.7092 60.2842 19.8553 59.886C20.2204 58.9809 20.6586 61.8048 20.6586 64.9545ZM18.9059 63.7598C18.9059 64.4477 18.8328 64.4839 18.5407 64.0494C18.066 63.3616 18.066 62.9633 18.5407 62.9633C18.7598 62.9633 18.9059 63.3254 18.9059 63.7598ZM71.7439 67.9957C72.1456 68.6112 72.1091 68.756 71.5248 68.937C71.1596 69.0456 70.5024 69.5162 70.0642 69.9869C69.2608 70.8196 69.1513 70.8196 67.9828 70.3489C67.3255 70.0593 66.3396 69.8421 65.8649 69.8421C64.7694 69.8421 63.9661 68.6836 64.6599 68.1043C64.9155 67.8871 66.1205 67.6336 67.289 67.5612C68.494 67.4888 69.8816 67.4164 70.3928 67.3802C70.9771 67.344 71.4883 67.5612 71.7439 67.9957ZM73.4966 67.6698C73.3871 67.8509 73.0585 67.9233 72.7663 67.7785C71.9995 67.525 72.0725 67.3078 72.9854 67.3078C73.3871 67.3078 73.6427 67.4526 73.4966 67.6698ZM61.8847 68.2491C61.7751 68.3577 61.4465 68.3939 61.1909 68.2853C60.8988 68.1767 61.0083 68.0681 61.41 68.0681C61.8117 68.0319 62.0308 68.1405 61.8847 68.2491ZM63.7835 69.0818C64.3678 69.4438 64.0026 70.2041 63.2358 70.2041C62.9436 70.2041 62.7245 69.8783 62.7245 69.48C62.7245 68.6836 62.9802 68.5749 63.7835 69.0818ZM74.4095 69.9145C74.4095 70.3489 74.6651 70.9644 74.9938 71.3264C75.3224 71.6885 75.7971 73.1729 76.0892 74.621C76.3449 76.0692 76.6735 77.6983 76.8196 78.2052C77.0021 79.0017 76.71 79.5085 74.9938 81.2825L72.9489 83.4186L71.3422 81.6808C70.5024 80.7395 69.0052 78.531 68.0923 76.7932C66.1422 74.3314 64.4043 71.9057 64.5702 72.1953C64.5702 72.3764 64.5138 72.4126 64.9155 72.666C65.3172 72.8832 66.4606 74.7549 67.4465 76.7099C68.4325 78.6287 69.9296 81.0182 70.7329 81.9957C71.5728 82.937 72.2186 83.8168 72.2186 83.9978C72.2186 85.4822 67.9098 83.5634 66.6317 81.4998C64.8425 78.6397 64.1487 76.7208 63.82 73.7521C63.4914 70.4213 63.747 69.9145 65.1711 70.8196C65.9379 71.3264 66.0109 71.3264 65.7919 70.7834C65.4997 70.0231 66.3396 70.0231 68.0193 70.8196L69.2974 71.4351L70.5024 70.2765C72.1091 68.7198 72.8394 68.7922 73.168 70.4213C73.3141 71.254 73.5332 71.5799 73.7523 71.3627C73.9713 71.1454 73.9713 70.7472 73.6792 70.2403C73.241 69.4076 73.4966 68.6111 74.0809 68.937C74.2635 69.0818 74.4095 69.5163 74.4095 69.9145ZM23.4338 69.4438C23.5433 69.6249 23.3973 69.8421 23.1051 69.9869C22.7765 70.0955 22.5574 69.9869 22.5574 69.6611C22.5574 69.0818 23.1417 68.937 23.4338 69.4438ZM23.6529 70.53C23.6529 70.9644 22.9226 71.4351 22.667 71.1816C22.4113 70.9282 22.8861 70.2041 23.3242 70.2041C23.5068 70.2041 23.6529 70.3489 23.6529 70.53ZM23.3608 72.0867C23.1417 72.304 22.813 72.3764 22.667 72.2315C22.5209 72.0867 22.6304 71.8333 22.9226 71.6523C23.6164 71.2178 23.9085 71.5437 23.3608 72.0867ZM63.0532 72.1953C63.2358 72.1229 63.4183 73.3177 63.5279 74.8744C63.6374 76.8295 63.9296 78.0966 64.4043 78.9293C65.7553 81.2101 65.8284 81.717 64.5868 80.5585C63.9661 79.9792 63.3088 79.0017 63.1262 78.3862C62.4689 76.3588 61.9212 72.3764 62.2133 71.7247C62.4689 71.1454 62.4689 71.1454 62.615 71.7609C62.7245 72.0867 62.9071 72.304 63.0532 72.1953ZM28.8016 72.1591C30.2622 72.7384 38.6608 73.4625 44.0651 73.4625C47.7897 73.4625 47.7897 73.4625 47.5341 74.259C47.4245 74.7296 47.2054 75.1641 47.1324 75.2727C46.7672 75.6709 37.8209 75.3089 34.4615 74.7658C30.6274 74.1504 28.8746 73.4987 27.8157 72.3402C27.0853 71.5075 27.1949 71.5075 28.8016 72.1591ZM61.9577 75.8881C62.1038 76.9381 62.2133 77.807 62.1403 77.807C61.7021 77.807 60.8988 75.3813 60.8988 74.078C60.8988 72.2678 61.3735 71.4351 61.556 72.9918C61.6291 73.5349 61.8117 74.8744 61.9577 75.8881ZM23.2877 73.1004C23.2877 73.2815 23.1417 73.4625 22.9226 73.4625C22.74 73.4625 22.5574 73.2815 22.5574 73.1004C22.5574 72.8832 22.74 72.7384 22.9226 72.7384C23.1417 72.7384 23.2877 72.8832 23.2877 73.1004ZM77.5134 74.8744C78.3532 76.576 78.4262 77.807 77.6594 77.807C77.4768 77.807 77.1847 77.4449 77.0021 76.9743C76.6005 75.9244 76.1623 73.1004 76.4179 73.1004C76.4909 73.1004 77.0021 73.8969 77.5134 74.8744ZM22.9226 74.3676C22.9226 74.6572 22.7765 74.9106 22.5574 74.9106C22.3748 74.9106 22.3018 74.6572 22.4113 74.3676C22.5574 74.0779 22.7035 73.8245 22.7765 73.8245C22.8495 73.8245 22.9226 74.0779 22.9226 74.3676ZM80.2885 78.9655C80.9093 79.8344 81.9683 81.5722 82.662 82.8755C84.0862 85.5184 84.7069 86.3149 86.2406 87.5096C87.5186 88.4871 86.8979 88.5595 85.0356 87.582C82.0413 86.0977 77.2943 79.4723 78.2072 78.0604C78.7914 77.1553 79.0105 77.2639 80.2885 78.9655ZM69.8451 84.5771C71.5978 85.446 71.9265 85.5184 72.2551 85.0478C72.5472 84.5771 72.6933 84.6495 73.3141 85.3374C73.7157 85.808 74.227 86.858 74.446 87.6906C74.7017 88.632 75.578 89.9353 76.9291 91.3472C80.3616 95.0401 80.3616 95.0039 79.8503 95.8365C79.4122 96.5244 79.3391 96.5244 77.7325 95.1849C76.8196 94.4246 75.6876 93.7005 75.2494 93.5919C74.4461 93.3385 72.8394 91.6369 71.0136 89.1388C70.4659 88.3785 69.4434 87.0752 68.7496 86.2063C67.6176 84.8305 67.1064 83.5996 67.6542 83.5996C67.7272 83.5996 68.7496 84.034 69.8451 84.5771ZM71.6343 90.9128C72.3647 92.2523 72.4742 92.6506 72.0725 92.6506C71.7804 92.6506 71.2692 92.7592 70.9771 92.8678C70.5389 93.0488 70.1737 92.6144 69.5164 91.1662C69.0417 90.0801 68.5305 88.632 68.3845 87.9441L68.1289 86.6769L69.4069 87.9441C70.0642 88.632 71.0866 89.9715 71.6343 90.9128ZM64.9155 90.0801C64.9155 91.13 64.0391 92.6144 63.6374 92.2523C63.3088 91.8903 64.2217 88.632 64.5868 88.8854C64.7694 88.994 64.9155 89.537 64.9155 90.0801ZM61.0083 89.8629C61.9212 90.2611 62.3594 90.6594 62.3594 91.1662C62.3594 91.6007 62.1403 91.9265 61.8482 91.9265C61.483 91.9265 61.41 92.1799 61.556 92.723C61.7021 93.2661 61.6291 93.4109 61.2639 93.1937C60.9718 93.0126 60.8988 92.4334 61.0448 91.4197C61.1909 90.3697 61.1544 90.0801 60.8988 90.4784C60.7162 90.768 60.5336 91.5645 60.5336 92.2161C60.5336 93.5557 60.5336 93.5557 57.3568 92.4334C55.677 91.8179 55.3849 91.13 56.1883 89.6819C56.5169 89.0664 56.8455 88.9578 58.0871 89.1026C58.9269 89.2112 60.2415 89.537 61.0083 89.8629ZM93.069 90.4784C94.201 91.3835 93.5437 91.4197 92.1196 90.4784C91.3893 90.0077 91.2432 89.7543 91.6084 89.7543C91.937 89.7543 92.5943 90.0801 93.069 90.4784ZM100.336 93.1574C100.336 94.5694 99.9704 94.7866 97.6334 94.678C96.2824 94.6418 96.2459 94.6056 96.1363 93.2661L96.0633 91.9265H98.2177H100.336V93.1574ZM72.8394 93.8091C73.3141 94.2436 73.6792 94.7504 73.6792 94.9676C73.6792 95.1849 74.0079 95.5831 74.446 95.8365C75.3224 96.3796 75.2494 97.6467 74.3365 98.226C73.3141 98.8415 72.4012 98.045 72.4742 96.5968C72.5107 95.4383 72.4742 95.4021 71.9995 96.0538C71.5248 96.7416 71.4883 96.7416 70.758 96.09C69.8086 95.2211 69.8451 94.2798 70.831 93.5919C71.8534 92.8678 71.8169 92.8678 72.8394 93.8091ZM86.2406 95.2573C86.9344 96.2348 87.0074 97.5019 86.3866 97.9726C86.131 98.1898 85.4372 98.4432 84.8165 98.5518C84.2322 98.6605 83.4289 98.8777 83.1002 98.9863C82.6255 99.1673 82.443 99.0587 82.443 98.588C82.443 98.1898 82.1874 97.4295 81.8952 96.8503C81.5666 96.271 81.4205 95.6917 81.5666 95.5831C81.7126 95.4021 84.2687 94.7142 85.4372 94.497C85.5833 94.497 85.9485 94.8228 86.2406 95.2573ZM81.7126 98.1174C81.7126 99.2035 81.2379 99.4931 80.7267 98.6967C80.5807 98.4794 80.4346 98.1898 80.3981 98.0812C80.3981 97.9726 80.252 97.6105 80.106 97.2485C79.9234 96.9227 79.9234 96.3434 80.0694 95.9814C80.2885 95.4383 80.3616 95.4383 81.0189 96.2348C81.384 96.7054 81.7126 97.5381 81.7126 98.1174Z" fill="black"/>
<path d="M62.9071 58.0758C59.9128 58.3292 57.1377 58.6551 56.809 58.7999C56.2978 58.9809 56.1517 59.4516 56.1883 60.7549C56.1883 61.66 56.3708 62.7461 56.5534 63.1444C56.7725 63.6512 56.8455 63.1806 56.7725 61.5152L56.6995 59.1619L59.6207 58.9447C61.2274 58.7999 64.9885 58.5103 67.9463 58.2568C70.9406 58.0396 73.4236 57.8948 73.4966 57.9672C73.5332 58.0034 73.7157 59.0533 73.8618 60.2842L74.1174 62.4927L69.7721 62.7099C65.0981 62.9271 57.5393 63.7236 58.1966 63.9409C58.8174 64.1581 73.5697 63.072 74.0079 62.7823C74.4461 62.5289 74.5556 59.705 74.1904 58.3292C73.9713 57.569 73.7888 57.5327 71.1596 57.569C69.626 57.6052 65.9379 57.8224 62.9071 58.0758Z" fill="black"/>
<path d="M36.908 60.6101C34.3154 61.7324 34.6806 64.1219 37.5288 64.5925C40.4866 65.0994 45.7083 63.5064 46.2195 61.9496C46.2925 61.6962 45.6718 61.1893 44.7589 60.7911C42.8601 59.9584 38.6973 59.8498 36.908 60.6101ZM37.2732 61.4066C36.6159 61.66 36.6889 62.8547 37.3827 63.1081C39.0625 63.7598 43.4808 62.9271 44.2477 61.841C44.6859 61.2255 44.7589 61.2255 45.4162 61.7324C45.9639 62.203 46.0004 62.2755 45.4892 62.0944C45.1606 61.9858 44.4668 62.2392 43.9555 62.6375C43.0427 63.3616 40.1579 64.0494 38.1496 64.0494C37.0906 64.0494 35.703 63.2168 35.703 62.5651C35.703 62.1306 36.7985 61.1531 37.2732 61.1893C37.6018 61.1893 37.5653 61.2617 37.2732 61.4066Z" fill="black"/>
<path d="M92.9594 63.1806C93.8723 63.8322 94.0184 64.846 93.2151 65.4976C92.9229 65.7511 91.6449 66.3303 90.3668 66.801C87.7742 67.7423 87.9933 67.9233 90.732 67.1268C92.9229 66.4751 94.4931 65.3528 94.4931 64.4115C94.4931 63.7598 93.2151 62.6013 92.5213 62.6013C92.3022 62.6013 92.5213 62.8547 92.9594 63.1806Z" fill="black"/>
<path d="M49.6154 63.9409C49.871 64.3753 50.1631 64.6649 50.2727 64.5563C50.3822 64.4839 50.1631 64.1219 49.798 63.7598C49.1772 63.1806 49.1407 63.1806 49.6154 63.9409Z" fill="black"/>
<path d="M68.0558 64.0856C68.2019 64.3028 68.7861 64.3753 69.4799 64.2666C70.1372 64.1218 71.3787 64.1942 72.2551 64.3753C73.9348 64.7373 74.5556 64.5925 73.6792 64.0494C72.8759 63.5426 67.7272 63.5788 68.0558 64.0856Z" fill="black"/>
<path d="M61.483 64.4477C59.219 64.7735 58.3427 65.2442 58.3427 66.1131C58.3427 66.5113 58.5617 66.4027 58.9999 65.8597C59.5842 65.1718 60.278 64.9546 63.6739 64.5925C66.3761 64.2667 66.9968 64.1219 65.6458 64.1219C64.5503 64.1219 62.688 64.2667 61.483 64.4477Z" fill="black"/>
<path d="M50.4188 67.1268C50.4188 68.3216 50.4918 68.756 50.5648 68.1043C50.6379 67.4527 50.6379 66.4752 50.5648 65.9321C50.4918 65.389 50.4188 65.9321 50.4188 67.1268Z" fill="black"/>
<path d="M77.4403 66.4751C77.9881 66.5475 78.8644 66.5475 79.4487 66.4751C79.9964 66.4027 79.5217 66.3303 78.4262 66.3303C77.3308 66.3303 76.8561 66.4027 77.4403 66.4751Z" fill="black"/>
<path d="M30.0065 68.5387C30.5908 69.0094 31.9419 69.118 37.6748 69.118C41.509 69.118 44.8319 68.9732 45.0875 68.8283C45.3066 68.6835 42.2758 68.5749 38.3321 68.5749C34.3519 68.5749 30.7369 68.4301 30.2256 68.2853C29.3493 67.9957 29.3493 68.0319 30.0065 68.5387Z" fill="black"/>
<path d="M24.7483 74.0056C24.4197 75.3451 24.3466 76.214 24.5657 76.0692C24.7483 75.9244 25.2595 75.8158 25.6612 75.8158C26.355 75.8158 26.8297 74.8382 26.9027 73.1729C26.9392 72.4488 26.8662 72.4126 26.1359 72.7746C25.4786 73.1367 25.4056 73.1005 25.5882 72.5936C25.6977 72.304 25.6977 71.9781 25.5516 71.8695C25.4056 71.7971 25.0404 72.7384 24.7483 74.0056ZM26.5741 73.6435C26.5741 73.9331 26.2454 74.1866 25.8438 74.1866C25.0404 74.1866 24.8579 73.6435 25.5882 73.3539C26.355 73.028 26.5741 73.1005 26.5741 73.6435ZM26.2089 74.9107C26.2089 75.0917 25.8803 75.2727 25.4421 75.2727C25.0404 75.2727 24.8213 75.0917 24.9309 74.9107C25.0404 74.6934 25.4056 74.5486 25.6977 74.5486C25.9898 74.5486 26.2089 74.6934 26.2089 74.9107Z" fill="black"/>
<path d="M28.1443 75.3089C27.0123 76.4312 22.1192 77.3363 22.7765 76.2864C22.9225 76.033 22.886 75.9968 22.5939 76.1416C21.6445 76.7209 22.74 77.1553 24.7118 76.9743C27.0123 76.7571 28.619 76.1416 28.9476 75.3451C29.2763 74.5124 28.9841 74.5124 28.1443 75.3089Z" fill="black"/>
<path d="M52.9748 75.5261C53.3035 75.5985 53.8877 75.5985 54.2529 75.5261C54.5815 75.4175 54.2894 75.3451 53.5956 75.3451C52.9018 75.3451 52.6097 75.4175 52.9748 75.5261Z" fill="black"/>
</svg>
