<svg width="40" height="30" viewBox="0 0 40 30" fill="none" xmlns="http://www.w3.org/2000/svg">
<path fill-rule="evenodd" clip-rule="evenodd" d="M20.0632 7.55665C20.2462 7.66425 20.3008 7.88989 20.1859 8.06127C20.0711 8.23266 19.8294 8.28342 19.6478 8.17625C17.7654 7.06592 15.4514 6.51141 12.7859 6.81687C10.3991 7.09065 7.72943 8.05129 4.83099 9.91572C2.485 11.4252 1.22217 13.6593 0.879027 16.0766C0.608123 17.9848 0.908666 20.0093 1.69961 21.8864C2.49103 23.7634 3.77331 25.489 5.46635 26.7989C7.79196 28.5982 10.8974 29.6135 14.5757 29.1597C17.595 28.7874 19.9137 27.7604 21.603 26.3403C23.0756 25.1015 24.0735 23.5603 24.6417 21.8898C25.2123 20.212 25.3503 18.4031 25.1021 16.6384C24.7552 14.1696 23.6517 11.7906 21.9193 9.98254C21.7748 9.83198 21.7882 9.60028 21.9484 9.46491C22.1087 9.32997 22.356 9.34211 22.5 9.49267C24.3384 11.4113 25.5086 13.9305 25.8754 16.5439C26.138 18.4113 25.9907 20.3287 25.3845 22.1111C24.7756 23.9014 23.7045 25.5549 22.1226 26.8857C20.3216 28.3999 17.8636 29.4925 14.6766 29.8856C10.7599 30.3685 7.44927 29.2838 4.96714 27.3634C3.16944 25.9728 1.80937 24.1435 0.971183 22.1558C0.132537 20.1677 -0.184677 18.0165 0.104751 15.982C0.476145 13.3673 1.84502 10.9475 4.39013 9.31087C7.39926 7.37528 10.1866 6.37559 12.6905 6.08879C15.5472 5.7612 18.0345 6.35997 20.0632 7.55665Z" fill="#FDFAF1"/>
<path fill-rule="evenodd" clip-rule="evenodd" d="M17.9728 8.55856C18.1715 8.64161 18.262 8.86204 18.1743 9.05023C18.0866 9.23885 17.8544 9.3241 17.6557 9.2415C16.2705 8.66325 14.6362 8.4225 12.7743 8.65221C11.0673 8.86337 9.16719 9.46943 7.08891 10.5738C5.06147 11.6508 3.85816 13.4006 3.3885 15.365C3.01677 16.9187 3.10165 18.6088 3.59884 20.2106C4.09602 21.8137 5.00644 23.3267 6.28344 24.5251C8.03618 26.1698 10.4871 27.2233 13.5224 27.1067C16.6301 26.9874 18.9299 25.9533 20.4923 24.4297C21.4293 23.5166 22.1047 22.4237 22.5333 21.2447C22.9638 20.0586 23.1448 18.7881 23.0902 17.5265C22.9815 14.9993 21.9368 12.5065 20.0754 10.7934C19.9191 10.6498 19.9159 10.4143 20.067 10.2668C20.2186 10.1193 20.4676 10.1162 20.6234 10.2593C22.6322 12.1076 23.7599 14.7872 23.8756 17.4973C23.9339 18.8526 23.7403 20.2159 23.2786 21.4868C22.8141 22.7648 22.079 23.9522 21.0557 24.9492C19.3604 26.6018 16.8833 27.7229 13.5523 27.8506C10.2772 27.9765 7.62714 26.8346 5.72843 25.053C4.35488 23.764 3.3773 22.1401 2.84327 20.4208C2.30924 18.6998 2.21923 16.8802 2.6208 15.202C3.13757 13.0401 4.46494 11.1132 6.7032 9.924C8.87103 8.77192 10.8677 8.13757 12.6722 7.91493C14.688 7.66534 16.4626 7.92906 17.9728 8.55856Z" fill="#FDFAF1"/>
<path fill-rule="evenodd" clip-rule="evenodd" d="M8.91233 6.29571C9.13065 6.35875 9.24897 6.56415 9.1757 6.75327C9.10244 6.94195 8.8658 7.04444 8.64748 6.98141C7.69948 6.70396 6.07376 5.94192 5.03665 5.00279C4.54854 4.55981 4.18122 4.07095 4.05152 3.56064C3.91341 3.01346 4.04212 2.45899 4.56983 1.93196C5.09111 1.41093 6.01981 0.921647 7.49998 0.503969C10.9994 -0.481904 12.444 0.0944339 12.8732 1.23511C13.4083 2.66011 12.1123 4.95176 11.546 5.95264C11.4613 6.10273 11.3945 6.22023 11.3534 6.30342C11.2623 6.48739 11.0173 6.57316 10.8054 6.49468C10.5935 6.41664 10.4945 6.20393 10.5851 6.02039C10.6242 5.94106 10.6999 5.80685 10.7979 5.63532C11.3182 4.71505 12.5098 2.60736 12.0786 1.45939C11.7955 0.705088 10.6554 0.376603 7.75889 1.19266C6.43317 1.56617 5.62724 1.97956 5.20101 2.40538C4.86933 2.73687 4.78567 3.07693 4.86934 3.40799C4.9624 3.77592 5.25201 4.15072 5.6421 4.5045C6.5807 5.35444 8.05294 6.04442 8.91233 6.29571Z" fill="#FDFAF1"/>
<path fill-rule="evenodd" clip-rule="evenodd" d="M4.14758 3.81547C4.03583 3.79025 3.97444 3.70568 4.01017 3.62716C4.04591 3.54829 4.16621 3.50494 4.27695 3.53016C6.75846 4.09403 9.98695 3.14004 11.6238 2.51187C11.9545 2.38502 12.2198 2.27133 12.3995 2.18642C12.404 2.18393 12.4086 2.18215 12.4121 2.18072C12.4634 2.16012 12.5223 2.15621 12.5757 2.16687C12.5737 2.15621 12.5737 2.14448 12.5752 2.13347C12.5883 2.05104 12.6929 1.99171 12.8097 2.00095C12.8893 2.00734 12.9446 2.03399 12.9783 2.0784C12.9834 2.08551 12.9884 2.09261 12.9919 2.09972C13.0342 2.17895 12.9094 2.3065 12.6356 2.43548C12.4458 2.52395 12.1695 2.64262 11.8267 2.77444C10.1299 3.42606 6.77355 4.41238 4.14758 3.81547Z" fill="#FDFAF1"/>
<path fill-rule="evenodd" clip-rule="evenodd" d="M5.03611 2.2322C4.96977 2.15834 4.99753 2.05768 5.0973 2.0083C5.19707 1.95931 5.3318 1.9796 5.39814 2.05386L6.63546 3.4501L7.43258 1.24358C7.46292 1.15708 7.58223 1.10617 7.69845 1.12914C7.74062 1.13718 7.77661 1.1544 7.80387 1.17737L9.93858 2.77532L10.5737 1.11727C10.6061 1.03115 10.7264 0.981777 10.8422 1.00627C10.9579 1.03077 11.0242 1.11995 10.9918 1.20607L10.2543 3.12898C10.2441 3.15463 10.2255 3.17874 10.1988 3.1994C10.1134 3.26217 9.97612 3.2618 9.89178 3.19864L7.75399 1.598L6.93013 3.8803C6.91676 3.91705 6.88591 3.95073 6.84014 3.97331C6.73986 4.02231 6.60513 4.00202 6.5393 3.92739L5.03611 2.2322Z" fill="#FDFAF1"/>
<path fill-rule="evenodd" clip-rule="evenodd" d="M7.04906 3.89083C6.9812 3.83272 6.98414 3.74 7.05538 3.68465C7.12619 3.62896 7.23915 3.63137 7.30659 3.68984L9.41785 5.51569L9.64461 3.1353C9.65178 3.05505 9.73734 2.99451 9.83513 3.00039C9.93334 3.00662 10.0067 3.07685 9.99952 3.1571L9.74156 5.86474C9.73819 5.89968 9.71964 5.93358 9.68677 5.95987C9.61553 6.01522 9.50257 6.01315 9.43513 5.95469L7.04906 3.89083Z" fill="#FDFAF1"/>
<path fill-rule="evenodd" clip-rule="evenodd" d="M18.664 25.7514C18.8179 25.8963 18.8189 26.1322 18.6659 26.2784C18.5125 26.4238 18.2634 26.4246 18.1095 26.2797C16.1156 24.4076 14.6866 21.9691 14.1171 19.4048C13.7389 17.701 13.7393 15.9397 14.2048 14.2496C14.6712 12.555 15.6031 10.9347 17.0862 9.51757C19.0908 7.60303 22.1014 6.06221 26.3307 5.2198C29.3703 4.61416 32.2013 5.36778 34.4918 6.94659C36.2758 8.17642 37.7291 9.90719 38.6936 11.8836C39.6572 13.8595 40.1348 16.0842 39.9669 18.3022C39.7351 21.3653 38.278 24.4138 35.1797 26.7789C32.7181 28.6581 30.2233 29.5871 27.8456 29.7934C25.1517 30.0275 22.6172 29.3335 20.4573 28.0441C20.2731 27.9341 20.2181 27.7039 20.3338 27.5303C20.449 27.3558 20.692 27.3037 20.8762 27.4133C22.8976 28.6201 25.2641 29.2704 27.7747 29.0522C30.0032 28.8582 32.3529 27.9791 34.6868 26.1976C37.5957 23.9769 38.9641 21.1188 39.181 18.2492C39.3386 16.1588 38.8881 14.0605 37.9782 12.1955C37.0687 10.3304 35.7021 8.70079 34.0291 7.54782C31.9107 6.0874 29.2956 5.39032 26.4907 5.94957C22.4251 6.7593 19.5455 8.2259 17.6436 10.0433C16.2639 11.3614 15.3983 12.8656 14.9655 14.4365C14.5322 16.0108 14.5327 17.6568 14.8871 19.2528C15.4254 21.6749 16.7774 23.9804 18.664 25.7514Z" fill="#FDFAF1"/>
<path fill-rule="evenodd" clip-rule="evenodd" d="M20.6922 24.0558C20.8573 24.1836 20.8769 24.408 20.7356 24.5573C20.5943 24.7066 20.3463 24.7243 20.1808 24.5965C18.3934 23.2046 17.0437 21.3302 16.4064 19.3094C15.9831 17.9656 15.8736 16.5556 16.158 15.1755C16.4433 13.7921 17.1235 12.4432 18.2783 11.2302C19.8382 9.59025 22.261 8.19709 25.7449 7.29827C28.2596 6.64956 30.683 7.10129 32.7035 8.24391C34.275 9.13303 35.6019 10.441 36.5333 11.9716C37.4629 13.4998 38.0014 15.2544 38 17.0398C37.9972 19.5056 36.9664 22.0245 34.5189 24.0828C32.5743 25.718 30.5422 26.5949 28.5627 26.8872C26.3188 27.2192 24.1501 26.7991 22.2582 25.8817C22.0671 25.7893 21.9948 25.5738 22.0965 25.4008C22.1986 25.2279 22.4368 25.1625 22.6279 25.2545C24.3748 26.1014 26.3734 26.4899 28.4368 26.1849C30.2699 25.9137 32.1608 25.0938 33.9832 23.561C36.2555 21.6503 37.2121 19.3179 37.2149 17.039C37.2168 15.3784 36.7133 13.7427 35.8443 12.3137C34.9762 10.8877 33.7445 9.67123 32.2881 8.84791C30.4475 7.80694 28.2433 7.39402 25.9613 7.98283C22.6368 8.84074 20.3393 10.1538 18.8769 11.6916C17.8167 12.8068 17.1929 14.0401 16.9323 15.3033C16.6712 16.5699 16.7733 17.8707 17.1654 19.1137C17.7598 21.0025 19.0214 22.7546 20.6922 24.0558Z" fill="#FDFAF1"/>
<path fill-rule="evenodd" clip-rule="evenodd" d="M21.5916 27.2724C21.5077 27.2065 21.4965 27.089 21.566 27.01C21.635 26.9309 21.7591 26.9207 21.8426 26.9861C21.8463 26.9888 23.0958 27.9999 25.1186 28.0993C25.2268 28.1046 25.3107 28.1921 25.3051 28.295C25.2991 28.3975 25.2067 28.4766 25.0985 28.4713C22.9433 28.3652 21.5954 27.2755 21.5916 27.2724Z" fill="#FDFAF1"/>
<path fill-rule="evenodd" clip-rule="evenodd" d="M20.9564 9.78837C20.8785 9.7168 20.8766 9.59841 20.9522 9.52464C21.0278 9.45086 21.1528 9.44954 21.2306 9.5211C21.2367 9.52685 23.4157 11.5116 23.9171 13.5185C23.9418 13.6188 23.8756 13.719 23.7702 13.7425C23.6638 13.7659 23.558 13.7031 23.5337 13.6029C23.0585 11.7038 20.9625 9.79411 20.9564 9.78837Z" fill="#FDFAF1"/>
<path fill-rule="evenodd" clip-rule="evenodd" d="M3.66786 11.0014C3.76348 10.9524 3.88287 10.9851 3.93511 11.0756C3.98781 11.1653 3.95284 11.2793 3.85723 11.3283C3.85303 11.331 2.35122 12.104 1.59798 14.8716C1.57093 14.9714 1.46413 15.0311 1.35872 15.0059C1.25331 14.9807 1.19081 14.8791 1.21693 14.7797C2.01401 11.8531 3.6632 11.0041 3.66786 11.0014Z" fill="#FDFAF1"/>
<path fill-rule="evenodd" clip-rule="evenodd" d="M38.4833 15.4613C38.4604 15.361 38.528 15.2616 38.6339 15.2395C38.7407 15.2179 38.8452 15.2819 38.868 15.3822C38.8699 15.3897 39.4305 17.7911 38.7295 19.9212C38.035 22.0301 37.7869 22.3791 37.786 22.3795C37.7244 22.4639 37.6018 22.4855 37.5127 22.4272C37.4231 22.3689 37.4007 22.2527 37.4628 22.1679C37.4628 22.1679 37.6764 21.8667 38.3531 19.8103C39.0234 17.7756 38.4847 15.4684 38.4833 15.4613Z" fill="#FDFAF1"/>
</svg>
